<svg width="24" height="24" viewBox="0 0 24 24" fill="none" xmlns="http://www.w3.org/2000/svg">
<path fill-rule="evenodd" clip-rule="evenodd" d="M5.7 9.83624V5.7H9.86021V9.83624H5.7ZM4 5C4 4.44772 4.44772 4 5 4H10.5602C11.1125 4 11.5602 4.44772 11.5602 5V10.5362C11.5602 11.0885 11.1125 11.5362 10.5602 11.5362H5C4.44772 11.5362 4 11.0885 4 10.5362V5ZM5.7 18.3V14.1638H9.86021V18.3H5.7ZM4 13.4638C4 12.9115 4.44772 12.4638 5 12.4638H10.5602C11.1125 12.4638 11.5602 12.9115 11.5602 13.4638V19C11.5602 19.5523 11.1125 20 10.5602 20H5C4.44772 20 4 19.5523 4 19V13.4638ZM14.1398 5.7V9.83624H18.3V5.7H14.1398ZM13.4398 4C12.8875 4 12.4398 4.44772 12.4398 5V10.5362C12.4398 11.0885 12.8875 11.5362 13.4398 11.5362H19C19.5523 11.5362 20 11.0885 20 10.5362V5C20 4.44772 19.5523 4 19 4H13.4398ZM14.1398 18.3V14.1638H18.3V18.3H14.1398ZM12.4398 13.4638C12.4398 12.9115 12.8875 12.4638 13.4398 12.4638H19C19.5523 12.4638 20 12.9115 20 13.4638V19C20 19.5523 19.5523 20 19 20H13.4398C12.8875 20 12.4398 19.5523 12.4398 19V13.4638Z" fill="#010544"/>
</svg>
