<svg width="24" height="24" viewBox="0 0 24 24" fill="none" xmlns="http://www.w3.org/2000/svg">
<path fill-rule="evenodd" clip-rule="evenodd" d="M4.48604 7.7705C5.30675 7.7705 5.97207 7.10518 5.97207 6.28447C5.97207 5.46375 5.30675 4.79843 4.48604 4.79843C3.66532 4.79843 3 5.46375 3 6.28447C3 7.10518 3.66532 7.7705 4.48604 7.7705ZM8.25438 5.31283C7.71776 5.31283 7.28274 5.74785 7.28274 6.28447C7.28274 6.8211 7.71776 7.25611 8.25438 7.25611H20.0284C20.565 7.25611 21 6.8211 21 6.28447C21 5.74785 20.565 5.31283 20.0284 5.31283H8.25438ZM4.48604 13.486C5.30675 13.486 5.97207 12.8207 5.97207 12C5.97207 11.1793 5.30675 10.514 4.48604 10.514C3.66532 10.514 3 11.1793 3 12C3 12.8207 3.66532 13.486 4.48604 13.486ZM8.25438 11.0284C7.71776 11.0284 7.28274 11.4634 7.28274 12C7.28274 12.5366 7.71776 12.9716 8.25438 12.9716H20.0284C20.565 12.9716 21 12.5366 21 12C21 11.4634 20.565 11.0284 20.0284 11.0284H8.25438ZM5.97207 17.7155C5.97207 18.5362 5.30675 19.2016 4.48604 19.2016C3.66532 19.2016 3 18.5362 3 17.7155C3 16.8948 3.66532 16.2295 4.48604 16.2295C5.30675 16.2295 5.97207 16.8948 5.97207 17.7155ZM7.28274 17.7155C7.28274 17.1789 7.71776 16.7439 8.25438 16.7439H20.0284C20.565 16.7439 21 17.1789 21 17.7155C21 18.2521 20.565 18.6872 20.0284 18.6872H8.25438C7.71776 18.6872 7.28274 18.2521 7.28274 17.7155Z" fill="#010544"/>
</svg>
