<svg xmlns="http://www.w3.org/2000/svg" viewBox="0 0 203.9 203.9" fill="#ffffff" stroke="#ffffff">
<g>
	<path d="M150.5,38.3H49.4c-7.2,0-13,5.8-13,13v101.2c0,7.2,5.8,13,13,13h101.2c7.2,0,13-5.8,13-13V51.3
		C163.5,44.1,157.7,38.3,150.5,38.3z M38.4,152.5V51.3c0-6.1,4.9-11,11-11h101.2c6.1,0,11,4.9,11,11v101.2c0,6.1-4.9,11-11,11H49.4
		C43.3,163.5,38.4,158.5,38.4,152.5z"/>
	<rect x="54.4" y="70.6" width="91.4" height="2"/>
	<rect x="54.4" y="100.6" width="91.4" height="2"/>
	<rect x="54.4" y="130.6" width="91.4" height="2"/>
</g>
</svg>
