<svg xmlns="http://www.w3.org/2000/svg" viewBox="0 0 203.9 203.9" fill="#ffffff" stroke="#ffffff">
<path d="M160.4,135.6l-37.3-37.3c7.6-15.6,4.9-34.9-8-47.8c-16.3-16.3-42.7-16.3-59,0c-16.3,16.3-16.3,42.7,0,59
	c7.9,7.9,18.3,12.2,29.5,12.2c6.5,0,12.7-1.5,18.3-4.2l37.3,37.3L160.4,135.6z M57.5,51.9C65,44.4,75,40.3,85.6,40.3
	c10.6,0,20.6,4.1,28.1,11.6c15.5,15.5,15.5,40.7,0,56.1c-15.5,15.5-40.7,15.5-56.1,0C42.1,92.6,42.1,67.4,57.5,51.9z M115.1,109.4
	c2.8-2.8,5.1-6,7-9.3l35.4,35.4l-16.3,16.3l-35.4-35.4C109.2,114.6,112.3,112.2,115.1,109.4z"/>
</svg>
