<?xml version="1.0" encoding="utf-8"?>
<!-- Generator: Adobe Illustrator 24.0.1, SVG Export Plug-In . SVG Version: 6.00 Build 0)  -->
<svg version="1.1" baseProfile="tiny" id="图层_1"
	 xmlns="http://www.w3.org/2000/svg" xmlns:xlink="http://www.w3.org/1999/xlink" x="0px" y="0px" viewBox="0 0 200 200"
	 xml:space="preserve">
<g>
	<g>
		<g>
			<path fill="#11337F" d="M59.97,178.96c0.27,0.39,0.08,0.83,0.06,1.31c0.51-0.2,1.03-0.36,1.51-0.61
				c0.36-0.18,0.65-0.49,0.94-0.93c-0.66-0.07-1.23-0.14-1.81-0.19c-0.6-0.06-0.94-0.39-0.83-0.83c0.12-0.44,0.69-0.8,1.17-0.89
				c0.6-0.11,1.19-0.31,1.79-0.48c0.04-0.01,0.07-0.05,0.11-0.09c-0.58-0.13-1.14-0.26-1.77-0.41c-0.61,0.36-0.97,1.04-1.39,1.68
				c-0.43,0.65-0.85,1.35-1.41,1.88c-0.3,0.28-0.59,0.72-1.1,0.78c-0.33,0.04-0.67-0.05-0.78-0.29c-0.11-0.22-0.04-0.57,0.06-0.83
				c0.16-0.43,0.61-0.58,0.95-0.83c0.06-0.04,0.28-0.43,0.33-0.58c-0.14,0.02-1.8,0.46-2.05,0.53c-0.54,0.16-2.76,0.85-3.07,0.49
				c-0.13-0.15-0.18-0.92-0.07-1.11c0.09-0.16,0.17-0.34,0.28-0.49c0.1-0.14,0.24-0.25,0.39-0.39c0.04,0.05,0.46,0.59,0.82,0.51
				c0.14-0.03,1.15-0.08,1.14-0.48c-0.01-0.34,0.93-1.38,1.21-1.71c0.01,0,0.55-0.44,0.53-0.93c-1.33-0.18-1.92-1.04-2.06-2.3
				c-0.01-0.08-0.02-0.67,0.45-0.9c0.25,0.62,0.86,0.45,1.35,0.59c0.15,0.04,0.29,0.11,0.44,0.14c0.13,0.03,0.27,0.02,0.4,0.02
				c0.05,0,0.84,0.25,1.19,0.03c0.03-0.02,0.1,0.03,0.15,0.04c0.18,0.06,0.26,0.01,0.35-0.18c0.2-0.42,0.46-0.81,0.68-1.22
				c0.1-0.19,0.17-0.39,0.29-0.66c0.46-0.08,0.88,0.17,1.25,0.54c0.15,0.15-0.01,0.66-0.23,0.84c-0.05,0.04-0.13,0.06-0.17,0.11
				c-0.6,0.7-0.55,0.59,0.04,1.13c0.27,0.24,0.31,0.57,0.22,0.87c-0.05,0.15-0.28,0.29-0.45,0.35c-0.3,0.1-1.55-0.07-1.77,0.25
				c-0.09,0.13-0.26,0.19-0.42,0.31c0.12,0.23-0.8,1.2-1.08,1.5c-0.14,0.15-0.69,0.74-0.83,0.91c-0.01,0.31,0.17,0.33,0.48,0.4
				c0.74,0.18,1.2-0.15,1.71-0.59c0.26-0.22,0.59-0.36,0.83-0.63c0.23-0.26,0.37-0.52,0.35-0.86c-0.01-0.19,0.06-0.25,0.24-0.21
				c0.04,0.01,0.09,0.02,0.13,0.03c0.51,0.14,1.01,0.31,1.53,0.4c0.48,0.09,0.98,0.06,1.46,0.14c0.28,0.05,0.53,0.16,0.84,0.12
				c0.37-0.06,0.42-0.08,0.44-0.41c0.09-0.21,0.4-2.18,0.49-2.96c0.07-0.66,0.16-1.31,0.25-2.05c0.16,0.05,0.33,0.06,0.44,0.14
				c0.42,0.31,0.65,0.76,0.62,1.27c-0.02,0.33-0.22,0.64-0.31,0.97c-0.08,0.27-0.1,0.56-0.16,0.83c-0.12,0.59-0.24,1.18-0.38,1.76
				c-0.03,0.11-0.12,0.25-0.11,0.38c0.18,0.3,0.37,0.27,0.67,0.28c0.5,0.03,0.8,0.44,0.73,1.03c-0.03,0.3-0.44,0.54-0.83,0.49
				c-0.21-0.02-0.42-0.02-0.63-0.03c-0.62,1.14-0.67,3.76-0.62,3.78c0.42-0.38,0.84-0.76,1.25-1.15c0.09-0.09,0.1-0.27,0.17-0.39
				c0.09-0.18,0.21-0.29,0.41-0.13c0.18,0.14,0.4,0.21,0.32,0.56c-0.05,0.21,0.17,0.47,0.02,0.72c-0.05,0.08-0.08,0.17-0.15,0.22
				c-0.33,0.23-0.7,0.41-1.01,0.67c-0.29,0.24-0.49,0.57-0.79,0.8c-0.34,0.27-0.51,0.6-0.62,0.99c-0.01,0.05-0.07,1.48-0.04,2.14
				c0.02,0.36,0.14,0.71,0.29,1.07c0.18-0.35,0.35-0.69,0.54-1.06c0.29,0.05,0.43,0.21,0.33,0.55c-0.15,0.51-0.29,1.03-0.43,1.54
				c-0.06,0.22-0.1,0.45-0.16,0.67c-0.12,0.39-0.24,0.78-0.38,1.16c-0.04,0.1-0.12,0.18-0.18,0.27c-0.6-0.12-1.06-1.44-1.08-1.58
				c-0.08-0.55-0.16-1.1-0.19-1.65c-0.03-0.49,0-0.99,0.03-1.49c0.02-0.43,0.07-0.86,0.1-1.3c0-0.06-0.04-0.12-0.06-0.17
				c-0.24,0.02-1.32,0.42-1.79,0.37c-0.46-0.05-0.89-0.1-1.32-0.28c-0.06-0.03-0.11-0.09-0.17-0.13c0.06-0.05,0.12-0.13,0.19-0.15
				c0.38-0.09,0.79-0.13,1.16-0.26c0.6-0.21,1.2-0.45,1.76-0.75c0.33-0.18,0.53-0.51,0.56-0.94c0.03-0.39,0.16-0.77,0.24-1.16
				c0.01-0.05,0-0.1-0.01-0.19c-0.43,0.16-0.85,0.29-1.24,0.47c-0.25,0.12-0.45,0.36-0.7,0.48c-0.51,0.25-1.05,0.46-1.58,0.68
				c-0.13,0.05-0.27,0.08-0.4,0.14c-0.32,0.14-0.89-0.1-0.99-0.44c-0.02-0.05-0.03-0.12-0.02-0.16c0.27-0.63,0.54-1.27,0.81-1.9
				C59.86,178.95,59.91,178.96,59.97,178.96z M64.14,177.33c-0.92-0.04-0.74,0.04-1.29,0.37c0.35,0.14,0.7,0.27,1.11,0.43
				C64.02,177.87,64.08,177.61,64.14,177.33z"/>
			<path fill="#11337F" d="M68.67,172.97c0.47-0.1,0.74,0.19,0.99,0.51c0.29,0.37,0.41,0.8,0.43,1.27c0.02,0.39-0.28,0.66-0.65,0.53
				c-0.16-0.05-0.31-0.11-0.47-0.15c-0.22-0.06-0.41-0.44-0.35-0.66c0.08-0.32,0.15-0.64,0.18-0.97
				C68.81,173.33,68.72,173.15,68.67,172.97z"/>
		</g>
		<g>
			<path fill="#11337F" d="M88.31,183.36c0.19,0.01,0.41-0.04,0.47,0.03c0.17,0.24,0.45,0.45,0.31,0.82
				c-0.11,0.3-0.18,0.61-0.25,0.92c-0.07,0.3,0.05,0.44,0.36,0.41c0.57-0.06,1.14-0.16,1.72-0.18c0.69-0.03,1.28,0.28,1.69,0.8
				c0.23,0.29,0.4,0.71,0.41,1.07c0.01,0.44-0.09,0.9-0.33,1.32c-0.27,0.48-1.86,1.61-1.99,1.67c-0.35,0.15-0.71,0.3-1.08,0.4
				c-0.25,0.07-0.53,0.09-0.8,0.08c-0.34-0.01-0.68-0.11-1.02-0.11c-0.1,0-0.24,0.19-0.3,0.32c-0.26,0.55-0.49,1.11-0.74,1.67
				c-0.11,0.24-0.19,0.5-0.32,0.73c-0.22,0.38-0.38,0.81-0.85,1.07c-0.11-0.14-0.08-1.1-0.07-1.18c0.02-0.15,0.01-0.3,0.05-0.45
				c0.26-1.09,0.54-2.18,0.8-3.28c0.14-0.58,0.26-1.16,0.39-1.74c0.04-0.18-0.04-0.27-0.2-0.32c-0.07-0.02-0.14-0.06-0.2-0.06
				c-0.59,0.02-1-0.35-1.45-0.66c-0.05-0.03-0.19-0.02-0.21,0.01c-0.22,0.41-0.47,0.82-0.62,1.26c-0.1,0.29-0.07,0.62-0.09,0.94
				c-0.01,0.17,0.01,0.31-0.23,0.38c-0.2,0.05-0.36,0.25-0.57,0.33c-0.14,0.06-0.36,0.08-0.47,0.01c-0.15-0.09-0.24-0.27-0.21-0.5
				c0.03-0.37,0.14-0.74,0.02-1.13c-0.12-0.39,0.14-0.72,0.36-1.02c0.2-0.28,0.57-0.46,0.7-0.76c0.15-0.35,0.49-0.38,0.69-0.61
				c0.21-0.24,0.44-0.45,0.67-0.67c0.39-0.37,0.76-0.75,1.18-1.08c0.46-0.36,0.97-0.66,1.44-1c0.14-0.1,0.24-0.27,0.38-0.43
				c-0.2-0.13-1.84,0.12-2.02,0.32c-0.09,0.1-1.33,0.78-1.53,0.58c-0.3-0.31-0.64-0.57-0.94-0.88c-0.1-0.1-0.12-0.26-0.19-0.39
				c-0.18-0.32-0.37-0.63-0.55-0.95c-0.06-0.1-0.12-0.21-0.14-0.31c-0.01-0.09,0.02-0.22,0.08-0.27c0.06-0.05,0.22-0.08,0.28-0.04
				c0.47,0.31,1.04,0.22,1.54,0.36c0.21,0.06,3.38-0.28,3.78-0.22c0.23,0.03,1.23,0.03,1.49,0.04c0.01,0,0.95-0.06,1.36-0.28
				c0.13-0.07,0.25-0.17,0.35-0.27c0.17-0.16,0.33-0.25,0.56-0.13c0.19,0.1,0.4,0.16,0.59,0.24c0.07,0.03,0.13,0.08,0.18,0.14
				c0.21,0.21,0.41,0.42,0.63,0.62c0.15,0.14,0.34,0.25,0.48,0.41c0.13,0.16-0.01,0.74-0.2,0.86c-0.36,0.24-0.31,0.38-0.85,0.08
				c-0.31-0.17-2.25-0.04-2.34-0.01c-0.43,0.16-0.86,0.33-1.28,0.51c-0.26,0.11-0.51,0.24-0.76,0.36
				C88.42,183.24,88.37,183.3,88.31,183.36z M87.94,189.19c-0.07,0.43,0.19,0.74,0.62,0.73c0.69-0.02,1.1-0.5,1.52-0.94
				c0.26-0.28,0.43-0.65,0.62-1c0.05-0.09,0.05-0.24,0.01-0.35c-0.02-0.05-0.17-0.05-0.27-0.06c-0.03-0.01-0.05-0.01-0.08-0.01
				c-0.48,0.01-0.96-0.02-1.43,0.03c-0.4,0.05-0.58,0.09-0.71,0.6C88.12,188.52,88.03,188.86,87.94,189.19z M87.06,183.93
				c-0.29,0.2-0.53,0.35-0.76,0.53c-0.11,0.09-0.2,0.21-0.29,0.32c-0.06,0.07-0.1,0.14-0.16,0.21c-0.25,0.3-0.5,0.59-0.74,0.9
				c-0.06,0.08-0.05,0.2-0.08,0.3c0.12,0.02,0.24,0.08,0.35,0.06c0.39-0.07,0.78-0.2,1.18-0.25c0.42-0.06,0.54-0.17,0.52-0.59
				c-0.01-0.14-0.02-0.32,0.06-0.4c0.14-0.15,0.2-0.28,0.14-0.47C87.23,184.37,87.17,184.21,87.06,183.93z"/>
			<path fill="#11337F" d="M87.84,176.36c0.08,0.48,0.5,0.56,0.82,0.76c0.34,0.21,0.68,0.42,1.01,0.65
				c0.08,0.05,0.14,0.14,0.19,0.22c0.1,0.15,0.23,0.31,0.25,0.48c0.03,0.23,0.04,0.51-0.07,0.69c-0.12,0.19-0.13,0.38-0.14,0.57
				c-0.02,0.31-0.16,0.43-0.45,0.34c-0.18-0.06-0.36-0.16-0.48-0.3c-0.3-0.35-0.63-0.69-0.81-1.1c-0.28-0.61-0.54-1.26-0.48-1.96
				c0.01-0.11,0.06-0.21,0.08-0.32C87.79,176.37,87.82,176.37,87.84,176.36z"/>
		</g>
		<path fill="#11337F" d="M113.97,189.16c-0.03-0.51-0.17-1-0.46-1.43c-0.13-0.2-0.34-0.09-0.44,0.11c-0.31,0.6-0.6,1.22-0.94,1.81
			c-0.35,0.61-0.74,1.2-1.13,1.79c-0.09,0.14-0.24,0.25-0.39,0.33c-0.25,0.14-0.49,0.04-0.59-0.23c-0.18-0.46-0.17-0.89,0.16-1.29
			c0.26-0.32,0.48-0.66,0.71-1c0.15-0.22,0.05-0.37-0.07-0.59c-0.26-0.49-0.5-1.01-0.61-1.54c-0.18-0.91-0.26-1.83-0.36-2.75
			c-0.06-0.54-0.06-1.08-0.08-1.63c-0.01-0.25-0.12-0.41-0.36-0.5c-0.27-0.1-0.53-0.21-0.78-0.34c-0.44-0.24-0.44-0.51-0.04-0.8
			c0.59-0.44,1.17-0.91,1.76-1.35c0.71-0.54,1.47-0.96,2.37-1.09c0.35-0.05,0.66,0.02,0.85,0.32c0.18,0.29,0.05,0.56-0.18,0.8
			c-0.24,0.25-0.48,0.5-0.68,0.78c-0.07,0.1-0.09,0.32-0.02,0.44c0.42,0.79,0.39,1.68,0.52,2.53c0.06,0.41,0.13,0.83,0.21,1.24
			c0.02,0.08,0.12,0.21,0.17,0.2c0.09-0.01,0.21-0.08,0.27-0.16c0.19-0.25,0.36-0.51,0.52-0.78c0.04-0.06,0.04-0.17,0.02-0.25
			c-0.14-0.67,0-1.3,0.2-1.93c0.03-0.11,0.03-0.22,0.04-0.34c-0.15,0-0.31-0.03-0.45,0.01c-0.14,0.03-0.27,0.13-0.4,0.2
			c-0.04-0.04-0.08-0.08-0.11-0.11c0.15-0.21,0.27-0.44,0.45-0.61c0.43-0.4,0.9-0.77,1.34-1.15c0.12-0.1,0.24-0.22,0.32-0.35
			c0.06-0.11,0.07-0.25,0.1-0.37c-0.14,0.02-0.32-0.01-0.42,0.06c-0.31,0.22-0.6,0.48-0.9,0.71c-0.07,0.05-0.17,0.06-0.25,0.09
			c-0.02-0.1-0.08-0.21-0.05-0.3c0.17-0.54,0.12-0.75-0.31-1.09c-0.05-0.04-0.1-0.08-0.15-0.12c-0.38-0.3-0.37-0.67,0.05-0.86
			c0.6-0.28,1.25-0.24,1.83,0.04c0.23,0.12,0.35,0.46,0.52,0.71c0.05,0.07,0.05,0.18,0.11,0.23c0.09,0.07,0.21,0.1,0.31,0.14
			c0.04-0.1,0.12-0.21,0.1-0.31c-0.05-0.27-0.17-0.52-0.21-0.79c-0.02-0.13,0.09-0.39,0.16-0.4c0.15-0.02,0.39,0.04,0.46,0.16
			c0.2,0.29,0.35,0.63,0.49,0.96c0.13,0.28,0.28,0.3,0.52,0.13c0.61-0.44,1.28-0.77,2.05-0.76c0.31,0,0.62,0.12,0.91,0.24
			c0.12,0.05,0.23,0.28,0.22,0.42c0,0.12-0.17,0.3-0.29,0.33c-0.34,0.07-0.7,0.09-1.05,0.11c-0.49,0.04-0.99,0.04-1.47,0.13
			c-0.35,0.07-0.53,0.39-0.45,0.74c0.08,0.35,0.21,0.69,0.34,1.02c0.11,0.27,0.28,0.32,0.56,0.14c0.38-0.24,0.73-0.59,1.23-0.55
			c0.14,0.01,0.28,0.1,0.42,0.15c-0.09,0.12-0.16,0.28-0.27,0.36c-0.3,0.2-0.63,0.35-0.94,0.53c-0.43,0.24-0.5,0.54-0.25,0.95
			c0.13,0.21,0.22,0.45,0.36,0.65c0.1,0.15,0.26,0.25,0.39,0.38c0.05-0.02,0.1-0.03,0.15-0.05c0.07-0.39,0.14-0.79,0.2-1.18
			c0.02-0.13-0.02-0.28,0.03-0.4c0.08-0.18,0.21-0.34,0.31-0.51c0.22,0.14,0.51,0.24,0.65,0.44c0.26,0.38,0.19,0.83,0.11,1.26
			c-0.09,0.44-0.16,0.88-0.27,1.31c-0.21,0.8,0.1,1.42,0.67,1.92c0.68,0.59,1.39,1.15,2.1,1.7c0.28,0.22,0.48,0.13,0.49-0.22
			c0.02-0.35-0.02-0.71,0.03-1.1c0.19,0.31,0.41,0.61,0.57,0.94c0.39,0.77,0.76,1.56,1.13,2.34c0.04,0.09,0.05,0.2,0.07,0.31
			c-0.11-0.01-0.23,0.01-0.34-0.02c-0.76-0.24-1.38-0.7-1.96-1.23c-0.77-0.71-1.57-1.39-2.38-2.06c-0.32-0.26-0.41-0.16-0.52,0.25
			c-0.1,0.36-0.26,0.73-0.49,1.02c-0.12,0.15-0.48,0.19-0.71,0.16c-0.53-0.08-0.55-0.09-0.7,0.43c-0.08,0.27-0.29,0.32-0.49,0.16
			c-0.36-0.3-0.6-0.24-0.9,0.11c-0.3,0.36-0.67,0.66-1.01,0.99c-0.18,0.18-0.36,0.21-0.6,0.09c-0.67-0.34-1.15-0.86-1.25-1.6
			c-0.07-0.49,0.06-1.01,0.1-1.51c0.01-0.1,0.03-0.2,0.02-0.29c-0.04-0.45-0.28-0.78-0.53-0.73c-0.34,0.06-0.72,0.63-0.61,0.99
			c0.25,0.83,0.53,1.65,0.81,2.47c0.27,0.81,0.56,1.61,0.83,2.43c0.04,0.13-0.01,0.29-0.02,0.44c-0.16-0.04-0.38-0.02-0.48-0.13
			c-0.33-0.35-0.66-0.7-0.91-1.11c-0.35-0.59-0.63-1.23-0.93-1.85c-0.03-0.06,0-0.15,0-0.23c0.09,0.01,0.2,0,0.26,0.04
			c0.16,0.12,0.31,0.26,0.46,0.39C113.88,189.22,113.93,189.19,113.97,189.16z M116.21,184.97c0.05,0.03,0.11,0.06,0.16,0.08
			c0.18-0.22,0.33-0.48,0.55-0.65c0.2-0.15,0.47-0.24,0.73-0.29c0.05-0.01,0.16,0.31,0.23,0.48c0.03,0.08,0.02,0.17,0.05,0.25
			c0.2,0.68,0.4,1.35,0.62,2.02c0.07,0.22,0.25,0.36,0.5,0.25c0.34-0.14,0.63-0.35,0.77-0.72c0.25-0.64,0.13-1.25-0.16-1.83
			c-0.23-0.46-0.5-0.9-0.76-1.35c-0.4-0.7-0.48-0.93-1.16-0.25c-0.03,0.03-0.08,0.05-0.12,0.09c-0.52,0.45-1.02,0.91-1.31,1.54
			C116.25,184.72,116.24,184.85,116.21,184.97z M116.33,182.67c0.6,0,0.89-0.35,1.23-0.6c0.43-0.32,0.37-0.7,0.17-1.11
			c-0.14-0.28-0.28-0.55-0.41-0.83c-0.16-0.34-0.28-0.38-0.6-0.16c-0.67,0.46-1.14,1.07-1.28,1.88c-0.05,0.29-0.06,0.6,0.25,0.9
			c0.11-0.22,0.18-0.38,0.27-0.55c0.19-0.38,0.37-0.76,0.57-1.12c0.05-0.09,0.19-0.12,0.3-0.17c0.04,0.1,0.13,0.21,0.11,0.3
			c-0.05,0.22-0.14,0.44-0.22,0.66C116.6,182.11,116.48,182.35,116.33,182.67z M117.73,185.62c-0.02,0-0.04,0-0.07,0
			c-0.02-0.07-0.04-0.14-0.06-0.21c-0.13-0.41-0.23-0.44-0.61-0.26c-0.41,0.21-0.55,0.58-0.65,0.98c-0.02,0.09,0.03,0.24,0.1,0.29
			c0.05,0.04,0.19-0.04,0.29-0.06c0.14-0.02,0.32-0.07,0.4-0.01c0.11,0.08,0.16,0.26,0.18,0.41c0.03,0.16-0.02,0.34,0.01,0.51
			c0.01,0.08,0.12,0.14,0.18,0.2c0.06-0.07,0.16-0.13,0.16-0.21C117.69,186.72,117.71,186.17,117.73,185.62z M112.4,181.67
			c-0.03-0.03-0.13-0.22-0.24-0.23c-0.12-0.01-0.34,0.11-0.38,0.22c-0.11,0.29-0.16,0.61-0.19,0.92c-0.01,0.1,0.14,0.27,0.25,0.3
			s0.28-0.03,0.38-0.11C112.55,182.51,112.52,182.15,112.4,181.67z M112.14,184.97c0.03-0.01,0.07-0.03,0.1-0.04
			c0.46-0.18,0.57-0.41,0.38-0.86c-0.18-0.41-0.41-0.12-0.63-0.03c-0.03,0.01-0.07,0.02-0.11,0.03c-0.34,0.06-0.42,0.25-0.32,0.67
			C111.65,185.1,111.88,185.07,112.14,184.97z M112.59,186.32c-0.1,0.12-0.24,0.22-0.25,0.33c-0.01,0.16,0.08,0.32,0.12,0.48
			c0.12-0.08,0.28-0.15,0.34-0.26C112.88,186.68,112.87,186.46,112.59,186.32z"/>
		<path fill="#11337F" d="M159.41,155.76c-0.08-0.1-0.15-0.21-0.25-0.28c-0.43-0.31-0.89-0.58-1.3-0.92
			c-0.12-0.1-0.19-0.38-0.16-0.54c0.1-0.41,0.67-0.59,1.04-0.38c0.14,0.08,0.3,0.09,0.46,0.14c0.02-0.2,0.12-0.44,0.04-0.59
			c-0.24-0.44-0.56-0.84-0.85-1.25c-0.13-0.19-0.29-0.37-0.38-0.58c-0.12-0.3-0.02-0.42,0.3-0.41c0.16,0.01,0.32,0.04,0.47,0.09
			c0.58,0.21,0.95-0.07,0.92-0.7c-0.01-0.23,0.02-0.46,0.06-0.69c0.05-0.3,0.27-0.34,0.5-0.28c0.18,0.05,0.35,0.13,0.5,0.24
			c0.84,0.55,1.49,1.29,2.06,2.11c0.01,0.02,0.03,0.04,0.04,0.06c0.52,0.71,0.64,0.71,1.22,0.07c0.5-0.55,1.02-1.09,1.54-1.61
			c0.16-0.16,0.38-0.28,0.59-0.38c0.31-0.14,0.75,0.2,0.66,0.52c-0.26,0.89-0.67,1.7-1.34,2.36c-0.09,0.09-0.22,0.13-0.38,0.23
			c0.1-0.51,0.18-0.95,0.28-1.43c-1.11,0.42-2.68,4.65-2.37,6.05c0.39-0.22,0.4-0.63,0.49-0.96c0.12-0.48,0.15-0.98,0.23-1.47
			c0.08-0.5,0.36-0.84,0.83-1.04c0.23-0.1,0.41-0.05,0.52,0.13c0.15,0.24,0.29,0.49,0.35,0.76c0.12,0.53,0.17,1.08,0.29,1.61
			c0.03,0.15,0.17,0.32,0.3,0.38c0.09,0.03,0.28-0.11,0.38-0.21c0.24-0.27,0.44-0.57,0.69-0.83c0.32-0.33,0.66-0.63,1.02-0.92
			c0.22-0.18,0.43-0.07,0.41,0.22c-0.05,0.48-0.1,0.99-0.27,1.44c-0.21,0.58-0.21,0.66,0.28,1.01c0.52,0.37,1,0.8,1.5,1.19
			c0.55,0.43,0.62,1.39,0.25,2.02c-0.92,1.55-2.36,2.19-4.1,2.24c-0.32,0.01-0.49-0.16-0.61-0.44c-0.35-0.76-0.26-1.54-0.11-2.33
			c0.11-0.55,0.23-1.09,0.32-1.64c0.08-0.51,0.02-0.55-0.48-0.61c-0.12-0.01-0.27-0.2-0.3-0.33c-0.08-0.33-0.09-0.69-0.16-1.03
			c-0.02-0.09-0.15-0.16-0.23-0.24c-0.03,0.08-0.06,0.17-0.09,0.25c-0.18,0.49-0.32,0.99-0.54,1.46c-0.2,0.42-0.59,0.58-1.06,0.52
			c-0.35-0.04-0.41,0.25-0.46,0.47c-0.18,0.81-0.4,1.63-0.17,2.45c0.14,0.49,0.34,0.98,0.57,1.44c0.24,0.47,0.17,0.98-0.22,1.34
			c-0.56,0.5-1.18,0.41-1.69,0.14c-0.47-0.25-0.85-0.58-0.91-1.18c-0.03-0.33-0.19-0.64-0.29-0.96c-0.27-0.88-0.23-1.74,0.18-2.57
			c0.12-0.25,0.13-0.37-0.21-0.49c-0.92-0.31-1.78-0.74-2.33-1.62c-0.32-0.51-0.72-0.97-1.04-1.48c-0.26-0.41-0.19-0.58,0.25-0.77
			c0.21-0.09,0.43-0.18,0.65-0.23c0.62-0.15,1.12,0.22,1.65,0.42c0.12,0.05,0.24,0.09,0.37,0.14
			C159.36,155.83,159.39,155.8,159.41,155.76z M168.26,158.83c-0.35-0.28-0.54-0.28-0.69,0.05c-0.41,0.9-0.86,1.78-0.88,2.8
			c-0.01,0.49,0.16,0.63,0.62,0.45c0.43-0.17,0.8-0.44,1.1-0.79C168.97,160.66,169.11,159.41,168.26,158.83z M160.56,157
			c0.18,0.46,0.33,0.85,0.49,1.24c0.05,0.11,0.13,0.28,0.22,0.29c0.1,0.01,0.24-0.09,0.32-0.19c0.42-0.5,0.56-1.12,0.72-1.73
			c0.03-0.11-0.04-0.25-0.07-0.37c-0.16,0.04-0.34,0.05-0.47,0.14c-0.09,0.06-0.12,0.24-0.13,0.36c-0.03,0.29-0.17,0.4-0.45,0.34
			C160.99,157.05,160.79,157.03,160.56,157z M160.9,152.67c0.07-0.02,0.14-0.05,0.21-0.07c-0.05-0.19-0.14-0.38-0.14-0.57
			c-0.01-0.39-0.04-0.79,0.04-1.16c0.09-0.37,0.06-0.6-0.29-0.79c-0.27-0.15-0.49-0.05-0.48,0.26c0.02,0.68,0.05,1.36,0.43,1.96
			C160.74,152.43,160.83,152.55,160.9,152.67z M161.5,152.2c0.21,0.21,0.35,0.36,0.51,0.49c0.02,0.02,0.22-0.09,0.21-0.13
			C162.21,152.31,161.93,152.13,161.5,152.2z M160.25,154.11c0.03,0.23,0.05,0.4,0.1,0.57c0.02,0.06,0.13,0.1,0.2,0.12
			c0.03,0.01,0.11-0.06,0.13-0.11C160.76,154.52,160.55,154.2,160.25,154.11z M161.32,159.88c-0.06-0.01-0.11-0.02-0.17-0.04
			c-0.03,0.12-0.09,0.25-0.09,0.37c0,0.04,0.14,0.08,0.21,0.12C161.29,160.18,161.31,160.03,161.32,159.88z"/>
		<path fill="#11337F" d="M146.43,174.15c-0.13,0.51-0.5,0.83-0.79,1.2c-0.36,0.47-0.76,0.92-0.61,1.59
			c0.02,0.08,0.05,0.17,0.09,0.24c0.17,0.34,0.32,0.36,0.64,0.13c0.58-0.44,1.15-0.92,1.91-1.05c0.75-0.13,1.45-0.02,2.03,0.53
			c0.24,0.23,0.14,0.37-0.09,0.42c-0.64,0.14-1.28,0.26-1.93,0.34c-0.48,0.06-0.97,0.02-1.45,0.06c-0.18,0.02-0.39,0.11-0.5,0.25
			c-0.06,0.08,0.03,0.32,0.11,0.46c0.28,0.45,0.59,0.89,0.88,1.34c0.49,0.75,0.3,1.26-0.58,1.43c-0.56,0.1-1.16,0.1-1.73,0.07
			c-0.89-0.05-1.21,0.17-1.26,1.06c-0.02,0.29,0,0.56-0.35,0.65c-0.34,0.09-0.62-0.06-0.83-0.3c-0.16-0.19-0.29-0.43-0.39-0.67
			c-0.16-0.37-0.38-0.45-0.69-0.21c-0.19,0.14-0.36,0.35-0.59,0.07c-0.24-0.3-0.23-0.64,0.03-0.85c0.67-0.53,1.08-1.24,1.4-2.02
			c0.1-0.25,0.03-0.39-0.17-0.53c-0.31-0.21-0.37-0.52-0.14-0.82c0.12-0.16,0.28-0.29,0.4-0.44c0.09-0.11,0.16-0.24,0.21-0.37
			c0.03-0.08-0.01-0.18-0.01-0.27c-0.1,0.01-0.22-0.01-0.31,0.04c-0.47,0.24-0.68,0.7-0.96,1.11c-0.09,0.13-0.28,0.33-0.35,0.3
			c-0.15-0.06-0.31-0.22-0.36-0.37c-0.04-0.13,0.02-0.33,0.11-0.46c0.14-0.2,0.36-0.34,0.51-0.53c0.15-0.18,0.08-0.35-0.13-0.45
			c-0.4-0.19-1-0.11-1.3,0.22c-0.47,0.52-0.91,1.07-1.38,1.6c-0.54,0.6-1.08,1.22-1.66,1.78c-0.36,0.35-0.51,0.3-0.79-0.11
			c-0.08-0.11-0.15-0.23-0.21-0.35c-0.22-0.48-0.15-0.76,0.31-1.02c1.03-0.56,1.75-1.45,2.48-2.33c0.29-0.34,0.6-0.66,0.88-1
			c0.17-0.21,0.33-0.44,0.43-0.69c0.05-0.11-0.05-0.28-0.09-0.43c-0.11,0.09-0.24,0.15-0.32,0.26c-0.25,0.31-0.46,0.67-0.73,0.96
			c-0.25,0.26-0.59,0.28-0.94,0.17c-0.55-0.17-1.15-0.92-1.13-1.48c0.01-0.32,0.22-0.53,0.54-0.56c0.35-0.04,0.71-0.04,1.1-0.06
			c-0.04-0.09-0.05-0.15-0.08-0.19c-0.39-0.47-0.8-0.93-1.18-1.42c-0.2-0.25-0.27-0.57-0.05-0.83c0.26-0.3,0.57-0.63,1.01-0.48
			c0.49,0.17,0.95,0.45,1.43,0.67c0.16,0.07,0.38,0.19,0.48,0.13c0.11-0.07,0.18-0.32,0.16-0.48c-0.08-0.68-0.39-1.27-0.83-1.78
			c-0.21-0.24-0.4-0.5-0.59-0.77c-0.05-0.07-0.11-0.24-0.08-0.26c0.16-0.13,0.33-0.3,0.52-0.32c0.27-0.03,0.58-0.35,0.81,0.02
			c0.3,0.47,0.56,0.96,0.84,1.43c0.08,0.14,0.19,0.27,0.28,0.4c0.1-0.13,0.21-0.24,0.28-0.38c0.13-0.25,0.21-0.54,0.36-0.78
			c0.11-0.18,0.28-0.35,0.47-0.46c0.4-0.22,0.46-0.12,0.53,0.33c0.12,0.79-0.19,1.45-0.46,2.14c-0.12,0.31-0.23,0.63-0.32,0.95
			c-0.03,0.1,0,0.28,0.07,0.32c0.07,0.05,0.24,0.01,0.34-0.05c0.6-0.34,0.98-0.9,1.42-1.4c0.43-0.5,0.89-1,1.63-0.95
			c0.16,0.01,0.36,0.08,0.45,0.2c0.05,0.07-0.03,0.31-0.12,0.42c-0.55,0.65-1.12,1.27-1.69,1.91c-0.32,0.36-0.53,0.77-0.54,1.27
			c-0.01,0.42,0.14,0.53,0.54,0.43c0.13-0.03,0.27,0,0.4,0c-0.02,0.14,0,0.29-0.05,0.41c-0.11,0.23-0.26,0.44-0.38,0.67
			c-0.04,0.08-0.04,0.24,0,0.27c0.08,0.06,0.22,0.08,0.31,0.05c0.18-0.07,0.34-0.2,0.51-0.3c0.2-0.12,0.39-0.19,0.48,0.14
			c0.08,0.29,0.27,0.26,0.5,0.14C145.55,174.34,145.87,173.98,146.43,174.15z M142.77,180.67
			C142.77,180.67,142.77,180.66,142.77,180.67c0.08-0.06,0.17-0.11,0.25-0.17c0.25-0.19,0.45-0.26,0.58,0.13
			c0.03,0.08,0.21,0.15,0.32,0.14c0.38-0.02,0.59-0.27,0.7-0.61c0.2-0.65-0.12-1.12-0.53-1.56c-0.24-0.26-0.4-0.27-0.64-0.01
			c-0.17,0.18-0.37,0.34-0.51,0.53c-0.36,0.48-0.7,0.97-1.04,1.47c-0.05,0.08-0.05,0.3,0,0.32c0.11,0.06,0.29,0.1,0.41,0.06
			C142.47,180.91,142.61,180.77,142.77,180.67z M141.77,173.35c-0.43,0.3-0.56,0.91-0.33,1.41c0.04,0.08,0.12,0.14,0.19,0.21
			c0.08-0.07,0.2-0.14,0.22-0.22c0.09-0.4,0.15-0.8,0.21-1.2c0.01-0.07-0.05-0.17-0.11-0.21
			C141.89,173.31,141.79,173.34,141.77,173.35z M142.97,178.12c0.11-0.17,0.22-0.33,0.31-0.5c0.03-0.06,0-0.21-0.04-0.23
			c-0.07-0.03-0.21-0.03-0.26,0.03c-0.12,0.13-0.21,0.29-0.29,0.45c-0.04,0.08-0.01,0.19-0.01,0.29
			C142.77,178.14,142.86,178.13,142.97,178.12z M144.69,175.92c0.05-0.26,0.14-0.44,0.08-0.55c-0.12-0.26-0.35-0.1-0.5-0.01
			c-0.08,0.05-0.13,0.29-0.08,0.35C144.28,175.81,144.46,175.83,144.69,175.92z"/>
		<g>
			<path fill="#11337F" d="M179.52,133.37c0.36-0.29,0.45-0.66,0.45-1.02c-0.01-0.49-0.14-0.98-0.19-1.47
				c-0.05-0.54,0.05-1.06,0.42-1.5c0.21-0.25,0.41-0.2,0.52,0.05c0.12,0.25,0.2,0.54,0.22,0.82c0.04,0.53,0.01,1.06,0.02,1.59
				c0,0.2,0.02,0.4,0.07,0.59c0.02,0.09,0.12,0.21,0.2,0.22c0.08,0.02,0.2-0.07,0.26-0.14c0.13-0.15,0.24-0.31,0.35-0.48
				c0.2-0.33,0.45-0.34,0.74-0.13c0.37,0.27,0.79,0.49,1.09,0.83c0.69,0.79,1.47,0.4,1.89-0.27c0.49-0.79,0.72-1.67,0.54-2.6
				c-0.13-0.7-0.54-1.18-1.24-1.39c-0.27-0.08-0.55-0.17-0.79-0.32c-0.13-0.08-0.19-0.27-0.28-0.41c0.13-0.06,0.25-0.17,0.38-0.18
				c0.37-0.03,0.75-0.06,1.11-0.01c0.64,0.09,1.28,0.23,1.91,0.39c0.23,0.06,0.46,0.2,0.65,0.35c0.23,0.19,0.37,0.43,0.32,0.78
				c-0.18,1.24-0.43,2.44-1.11,3.52c-0.8,1.29-2.05,1.79-3.5,1.25c-0.44-0.16-0.84-0.46-1.26-0.7c-0.06-0.04-0.13-0.1-0.2-0.1
				c-0.18,0-0.37,0.01-0.53,0.08c-0.04,0.02-0.03,0.29,0.03,0.4c0.38,0.76,0.75,1.54,1.18,2.27c0.56,0.94,1.17,1.84,1.45,2.91
				c0.1,0.37,0.05,0.43-0.35,0.42c-0.16-0.01-0.32,0-0.48-0.03c-0.66-0.12-1.12-0.43-1.33-1.15c-0.21-0.73-0.58-1.41-0.9-2.11
				c-0.04-0.08-0.2-0.19-0.23-0.16c-0.1,0.06-0.22,0.17-0.25,0.28c-0.06,0.2-0.07,0.42-0.08,0.63c-0.02,0.5-0.15,0.67-0.6,0.73
				c-0.32,0.04-0.66-0.22-0.72-0.6c-0.04-0.27,0.02-0.55,0.03-0.82c0.01-0.2,0.04-0.42,0-0.61c-0.1-0.55-0.21-1.09-0.36-1.63
				c-0.13-0.46-0.3-0.53-0.75-0.38c-0.23,0.08-0.34,0.01-0.36-0.21c-0.11-0.95-0.27-1.91,0.25-2.79c0.11-0.18,0.34-0.37,0.53-0.39
				c0.11-0.01,0.35,0.29,0.37,0.47c0.08,0.53,0.09,1.08,0.11,1.62C179.16,132.44,179.15,132.92,179.52,133.37z"/>
			<path fill="#11337F" d="M180.49,139.37c0.77,0.43,1.55,0.86,2.31,1.31c0.12,0.07,0.24,0.26,0.22,0.38
				c-0.02,0.12-0.18,0.25-0.31,0.31c-0.78,0.36-1.58,0.34-2.34-0.01c-1.09-0.5-2.16-1.05-3.22-1.62c-0.87-0.47-1.7-1-2.56-1.5
				c-0.25-0.14-0.36-0.36-0.24-0.58c0.09-0.16,0.34-0.31,0.52-0.31c0.5-0.01,1,0.07,1.51,0.09c0.29,0.01,0.5-0.16,0.58-0.44
				c0.07-0.24,0.02-0.44-0.28-0.5c-0.63-0.12-1.26-0.25-1.89-0.41c-0.31-0.08-0.6-0.24-0.91-0.31c-0.14-0.03-0.36-0.01-0.45,0.08
				c-0.22,0.23-0.38,0.52-0.57,0.77c-0.08,0.1-0.23,0.25-0.28,0.23c-0.12-0.05-0.26-0.19-0.27-0.3c-0.08-0.57-0.15-1.15-0.15-1.73
				c0-0.35,0.1-0.71,0.21-1.04c0.09-0.31,0.33-0.52,0.67-0.5c0.34,0.02,0.66,0.14,0.83,0.47c0.09,0.18,0.18,0.36,0.23,0.55
				c0.21,0.79,0.84,1.04,1.54,1.21c0.17,0.04,0.35,0.06,0.52,0.05c0.11-0.01,0.22-0.1,0.33-0.15c-0.06-0.1-0.1-0.22-0.18-0.29
				c-0.36-0.34-0.79-0.61-1.08-1c-0.23-0.31-0.3-0.74-0.41-1.13c-0.02-0.07,0.06-0.23,0.13-0.27c0.08-0.04,0.22-0.01,0.3,0.05
				c0.64,0.42,0.78,0.36,0.84-0.41c0.06-0.84,0.16-1.67,0.14-2.51c-0.02-0.89-0.01-1.76,0.3-2.59c0.31-0.81,0.66-1.25,1.41-1.29
				c0.39-0.02,0.57,0.11,0.64,0.5c0.12,0.68-0.15,1.3-0.3,1.93c-0.02,0.1-0.22,0.23-0.32,0.23c-0.1-0.01-0.22-0.16-0.29-0.28
				c-0.11-0.2-0.07-0.57-0.42-0.51c-0.33,0.05-0.19,0.37-0.23,0.59c-0.15,0.98-0.3,1.95-0.18,2.94c0.15,1.33,0.57,2.52,1.63,3.42
				c0.21,0.18,0.17,0.49-0.12,0.63c-0.28,0.13-0.24,0.32-0.11,0.47c0.34,0.42,0.14,0.79-0.08,1.16c-0.04,0.06-0.1,0.11-0.15,0.17
				c-0.47,0.59-0.44,0.93,0.24,1.28c0.7,0.37,1.45,0.63,2.18,0.93C180.46,139.42,180.47,139.39,180.49,139.37z"/>
			<path fill="#11337F" d="M175.47,129.91c-0.11,0.25-0.2,0.51-0.32,0.75c-0.04,0.08-0.13,0.13-0.19,0.2
				c-0.06-0.07-0.13-0.13-0.19-0.2c-0.01-0.01-0.01-0.02-0.01-0.03c-0.3-0.84-0.3-0.84-1.15-0.49c-0.13,0.05-0.36,0.1-0.4,0.04
				c-0.1-0.14-0.17-0.34-0.15-0.5c0.12-0.78,0.75-1.45,1.59-1.51c0.44-0.03,0.83,0.15,1.12,0.47c0.07,0.08,0.07,0.29,0.03,0.41
				c-0.1,0.29-0.23,0.57-0.35,0.86C175.46,129.91,175.46,129.91,175.47,129.91z"/>
		</g>
		<path fill="#11337F" d="M99.83-0.55C44.51-0.55-0.34,44.3-0.34,99.62S44.51,199.79,99.83,199.79
			c55.32,0,100.17-44.85,100.17-100.17S155.15-0.55,99.83-0.55z M99.83,197.49c-54.05,0-97.87-43.82-97.87-97.87
			S45.78,1.75,99.83,1.75s97.87,43.82,97.87,97.87S153.88,197.49,99.83,197.49z"/>
		<path fill="#11337F" d="M99.83,26.23c-40.53,0-73.39,32.86-73.39,73.39s32.86,73.39,73.39,73.39c40.53,0,73.39-32.86,73.39-73.39
			S140.36,26.23,99.83,26.23z M99.83,171.32c-39.6,0-71.7-32.1-71.7-71.7s32.1-71.7,71.7-71.7s71.7,32.1,71.7,71.7
			S139.43,171.32,99.83,171.32z"/>
		<path fill="#11337F" d="M60.91,138.71c-0.01,0.02-0.03,0.05-0.04,0.08c-0.02-0.03-0.03-0.05-0.04-0.08H60.91z"/>
		<path fill="#11337F" d="M90.48,138.71c-0.01,0.02-0.03,0.05-0.04,0.08c-0.02-0.03-0.03-0.05-0.04-0.08H90.48z"/>
		<path fill="#11337F" d="M120.05,138.71c-0.01,0.02-0.03,0.05-0.04,0.08c-0.02-0.03-0.03-0.05-0.04-0.08H120.05z"/>
		<path fill="#11337F" d="M149.62,138.71c-0.02,0.02-0.03,0.05-0.04,0.08c-0.01-0.03-0.03-0.05-0.04-0.08H149.62z"/>
		<g>
			<path fill="#11337F" d="M34.57,54.86c-0.41,0.53-0.8,1.04-1.16,1.5c-3.33-2.59-6.62-5.14-9.94-7.72
				c0.34-0.45,0.72-0.93,1.07-1.41c0.14-0.19,0.3-0.22,0.52-0.19c2.91,0.4,5.81,0.78,8.72,1.17c0.55,0.07,1.09,0.15,1.75,0.25
				c-2.54-1.94-4.99-3.82-7.5-5.75c0.38-0.49,0.78-1.01,1.16-1.51c3.33,2.59,6.62,5.14,9.94,7.72c-0.41,0.53-0.85,1.1-1.26,1.64
				c-3.55-0.46-7.06-0.92-10.7-1.39C29.68,51.11,32.1,52.96,34.57,54.86z"/>
			<path fill="#11337F" d="M159.45,48.11c3.27-2.61,6.49-5.17,9.78-7.79c0.4,0.5,0.84,1.04,1.25,1.55
				c-1.29,3.37-2.56,6.69-3.88,10.14c2.48-2,4.86-3.92,7.28-5.87c0.39,0.49,0.79,0.99,1.18,1.48c-3.27,2.6-6.5,5.18-9.79,7.8
				c-0.41-0.51-0.86-1.06-1.29-1.6c1.28-3.33,2.55-6.62,3.87-10.04c-2.44,1.97-4.79,3.87-7.22,5.83
				C160.24,49.11,159.83,48.6,159.45,48.11z"/>
			<path fill="#11337F" d="M58.75,32.68c-1.94-3.73-3.86-7.39-5.8-11.11c0,0,0.06-0.04,0.11-0.07c1.45-0.75,2.91-1.5,4.36-2.24
				c0.58-0.3,1.19-0.51,1.86-0.5c0.71,0,1.32,0.24,1.83,0.72c0.74,0.7,1.17,1.58,1.32,2.58c0.11,0.72-0.07,1.38-0.52,1.96
				c-0.09,0.12-0.17,0.24-0.3,0.42c0.85,0.09,1.46,0.55,2.04,1.04c1.06,0.89,2.11,1.81,3.16,2.71c0.05,0.04,0.07,0.1,0.15,0.21
				c-0.66,0.35-1.31,0.68-1.91,0.99c-0.75-0.72-1.45-1.42-2.17-2.08c-0.41-0.38-0.86-0.72-1.32-1.03c-0.56-0.39-1.17-0.4-1.78-0.07
				c-0.57,0.31-1.15,0.6-1.8,0.95c0.82,1.54,1.62,3.06,2.46,4.63C59.89,32.09,59.31,32.39,58.75,32.68z M55.49,22.31
				c0.3,0.59,0.56,1.1,0.83,1.61c0.28,0.53,0.56,1.05,0.86,1.61c0.91-0.48,1.77-0.9,2.6-1.38c0.26-0.15,0.49-0.4,0.64-0.67
				c0.4-0.74,0.15-1.43-0.28-2.07c-0.42-0.63-1-0.86-1.68-0.57C57.45,21.27,56.5,21.8,55.49,22.31z"/>
			<path fill="#11337F" d="M184.64,94.81c-1,0.01-1.96-0.15-2.89-0.51c-3.46-1.34-4.17-6.2-1.16-8.47c1.18-0.89,2.53-1.33,3.97-1.52
				c1.23-0.17,2.46-0.16,3.65,0.25c1.92,0.65,3.13,1.93,3.44,3.98c0.32,2.13-0.44,3.78-2.22,4.95
				C187.99,94.45,186.35,94.77,184.64,94.81z M184.68,92.82c0.24-0.02,0.54-0.02,0.83-0.06c1.17-0.15,2.29-0.44,3.23-1.21
				c0.8-0.66,1.18-1.5,1.07-2.55c-0.15-1.4-1.11-2.38-2.61-2.69c-1.03-0.21-2.05-0.14-3.07,0.08c-0.93,0.2-1.81,0.53-2.53,1.18
				c-1.65,1.48-1.24,3.98,0.79,4.87C183.12,92.76,183.87,92.82,184.68,92.82z"/>
			<path fill="#11337F" d="M109.53,17.66c0.05-1.91,0.37-3.5,1.25-4.93c0.84-1.36,2.01-2.28,3.65-2.45c2.8-0.3,5.05,1.33,5.57,4.1
				c0.43,2.28,0.04,4.46-1.16,6.46c-0.66,1.09-1.59,1.87-2.83,2.23c-2.9,0.84-5.75-0.95-6.33-4
				C109.59,18.53,109.57,17.96,109.53,17.66z M111.53,17.08c-0.02,1.2,0.1,2.1,0.61,2.91c0.99,1.58,3.15,1.85,4.46,0.53
				c0.36-0.36,0.64-0.81,0.87-1.26c0.45-0.87,0.62-1.82,0.69-2.78c0.06-0.83,0-1.66-0.31-2.45c-0.84-2.1-3.45-2.57-4.93-0.87
				c-0.33,0.38-0.59,0.84-0.8,1.31C111.7,15.38,111.54,16.35,111.53,17.08z"/>
			<path fill="#11337F" d="M176.71,61.21c-1.61,0.96-3.19,1.9-4.84,2.88c-0.72-0.32-1.45-0.78-2.08-1.39
				c-0.91-0.87-1.57-1.89-1.91-3.11c-0.37-1.37-0.11-2.66,0.71-3.77c1.62-2.18,3.77-3.57,6.51-3.86c2.74-0.29,5.24,1.94,5.34,4.69
				c0.05,1.22-0.4,2.26-1.28,3.18c-0.49-0.45-0.95-0.87-1.43-1.31c0.06-0.11,0.09-0.22,0.15-0.3c0.98-1.39,0.67-2.97-0.75-3.89
				c-0.72-0.47-1.52-0.57-2.33-0.38c-1.74,0.4-3.21,1.27-4.35,2.64c-1.39,1.67-0.74,4.26,1.25,5.15c0.14,0.06,0.37,0.07,0.49,0
				c0.64-0.36,1.27-0.75,1.96-1.16c-0.38-0.63-0.74-1.21-1.14-1.86c0.54-0.32,1.09-0.65,1.65-0.98
				C175.37,58.94,176.04,60.07,176.71,61.21z"/>
			<path fill="#11337F" d="M187.4,71.43c0.17,0.59,0.35,1.21,0.53,1.85c-1.62,0.46-3.2,0.9-4.84,1.36c0.52,1.81,1.02,3.55,1.55,5.37
				c1.62-0.44,3.21-0.86,4.81-1.46c0.2,0.66,0.38,1.27,0.57,1.91c-3.99,1.15-7.96,2.3-12.03,3.47c-0.17-0.56-0.35-1.19-0.55-1.85
				c1.79-0.5,3.54-1,5.37-1.51c-0.53-1.82-1.03-3.57-1.56-5.4c-1.81,0.54-3.54,1.05-5.34,1.58c-0.18-0.63-0.36-1.26-0.53-1.86
				C179.38,73.74,183.33,72.6,187.4,71.43z"/>
			<path fill="#11337F" d="M159.08,30.38c-2.53,3.37-5,6.66-7.5,10c-0.5-0.36-1.03-0.75-1.57-1.15c1.13-1.47,2.22-2.91,3.38-4.41
				c-1.5-1.11-2.97-2.2-4.5-3.34c-1.15,1.44-2.25,2.9-3.31,4.47c-0.56-0.42-1.09-0.81-1.59-1.18c2.51-3.34,4.98-6.63,7.5-9.99
				c0.5,0.38,1.03,0.77,1.56,1.16c-1.02,1.33-2.01,2.63-3.05,3.98c1.51,1.12,2.98,2.21,4.53,3.35c0.99-1.35,1.96-2.65,2.98-4.03
				C158.01,29.61,158.54,30,159.08,30.38z"/>
			<path fill="#11337F" d="M72.44,16.34c-0.61,0.32-1.18,0.62-1.76,0.93c-0.09-0.1-0.15-0.16-0.2-0.23
				c-0.94-1.24-2.78-1.2-3.66,0.08c-0.36,0.53-0.4,1.08-0.11,1.65c0.28,0.56,0.77,0.83,1.37,0.81c0.83-0.03,1.65-0.14,2.48-0.18
				c0.51-0.03,1.03-0.02,1.54,0.05c0.9,0.12,1.58,0.6,2.06,1.36c0.5,0.79,0.76,1.67,0.74,2.61c-0.02,0.85-0.32,1.59-0.94,2.16
				c-1.22,1.14-2.71,1.68-4.36,1.59c-1.59-0.09-2.5-1.12-3.2-2.51c0.62-0.32,1.19-0.61,1.78-0.92c0.11,0.18,0.21,0.33,0.3,0.48
				c0.43,0.73,1.07,1.06,1.91,1.02c0.69-0.03,1.31-0.28,1.85-0.72c0.62-0.51,0.8-1.24,0.52-2c-0.28-0.76-0.82-1.17-1.63-1.16
				c-0.69,0.02-1.38,0.13-2.08,0.17c-0.58,0.03-1.18,0.09-1.74-0.01c-1.65-0.29-2.78-1.82-2.74-3.57c0.02-0.92,0.35-1.72,1.03-2.33
				c1.11-1.02,2.44-1.51,3.94-1.38C70.86,14.35,71.74,15.14,72.44,16.34z"/>
			<path fill="#11337F" d="M49.5,32.2c0.73,1.05,1.4,2.02,2.1,3.04c1.65-1.15,3.24-2.26,4.91-3.43c0.36,0.51,0.73,1.05,1.1,1.59
				c-2.19,1.5-4.34,2.98-6.5,4.46c-2.36-3.43-4.73-6.86-7.1-10.3c2.08-1.44,4.19-2.91,6.37-4.42c0.35,0.5,0.72,1.05,1.1,1.59
				c-1.61,1.1-3.18,2.17-4.83,3.29c0.61,0.89,1.2,1.74,1.83,2.65c1.44-1.01,2.83-1.99,4.27-3c0.36,0.53,0.74,1.07,1.09,1.59
				C52.37,30.24,50.97,31.2,49.5,32.2z"/>
			<path fill="#11337F" d="M161.77,35.47c-0.81,0.75-1.56,1.44-2.36,2.19c1.26,1.2,2.48,2.37,3.77,3.6
				c-0.43,0.44-0.88,0.9-1.34,1.38c-1.25-1.22-2.47-2.42-3.6-3.54c-0.92,0.83-1.8,1.62-2.74,2.47c1.48,1.42,2.89,2.78,4.36,4.19
				c-0.43,0.45-0.89,0.93-1.34,1.4c-1.91-1.87-3.8-3.71-5.65-5.51c2.92-3.01,5.82-5.99,8.72-8.98c1.83,1.77,3.68,3.55,5.55,5.35
				c-0.47,0.41-0.95,0.84-1.45,1.28C164.41,38.06,163.05,36.72,161.77,35.47z"/>
			<path fill="#11337F" d="M192.29,96.85c0,0.67,0,1.29,0,1.94c-0.11,0.02-0.19,0.05-0.27,0.05c-2.42-0.02-4.84-0.06-7.26-0.06
				c-0.53,0-1.08,0.06-1.59,0.19c-0.93,0.24-1.52,0.88-1.68,1.82c-0.09,0.54-0.09,1.12,0.01,1.66c0.2,1.07,0.94,1.65,1.96,1.87
				c0.37,0.08,0.75,0.12,1.13,0.12c2.13,0.01,4.26,0.01,6.39,0.01c0.4,0,0.8-0.04,1.2-0.06c0.16,0.46,0.18,1.36,0.05,1.98
				c-2.52-0.01-5.03,0-7.54-0.04c-0.71-0.01-1.44-0.09-2.12-0.28c-1.58-0.44-2.6-1.49-2.9-3.11c-0.14-0.76-0.18-1.57-0.08-2.33
				c0.29-2.16,1.71-3.49,3.91-3.66c1.29-0.1,2.6-0.05,3.9-0.07c1.55-0.02,3.09-0.04,4.64-0.06
				C192.1,96.82,192.17,96.83,192.29,96.85z"/>
			<path fill="#11337F" d="M21.61,51.63c2.38,1.38,4.71,2.71,7.02,4.08c0.46,0.27,0.88,0.63,1.25,1.01
				c1.15,1.18,1.47,2.58,0.99,4.15c-0.26,0.85-0.69,1.61-1.28,2.27c-1.19,1.32-2.67,1.75-4.38,1.25c-0.57-0.17-1.13-0.43-1.66-0.72
				c-1.96-1.09-3.9-2.2-5.84-3.32c-0.27-0.15-0.5-0.36-0.79-0.57c0.32-0.56,0.62-1.07,0.93-1.6c0.93,0.55,1.81,1.08,2.7,1.59
				c1.3,0.75,2.59,1.52,3.91,2.23c0.52,0.28,1.12,0.44,1.69,0.63c0.16,0.05,0.36,0.04,0.53,0.01c1.17-0.14,1.79-0.93,2.24-1.9
				c0.41-0.89,0.36-1.77-0.29-2.52c-0.34-0.4-0.77-0.77-1.22-1.03c-2.19-1.26-4.41-2.48-6.62-3.72c-0.04-0.02-0.06-0.06-0.14-0.15
				C20.97,52.76,21.29,52.19,21.61,51.63z"/>
			<path fill="#11337F" d="M148.96,23.15c-0.04,0.09-0.07,0.15-0.09,0.21c-0.36,0.89-0.97,1.42-1.89,1.82
				c-2.89,1.27-5.72,2.67-8.57,4.02c-0.04,0.02-0.07,0.06-0.16,0.13c1.92,1.06,3.81,2.11,5.76,3.18c-0.31,0.56-0.63,1.14-0.94,1.69
				c-2.66-1.5-5.27-2.98-7.92-4.48c0.27-0.48,0.52-0.95,0.8-1.4c0.07-0.12,0.23-0.21,0.36-0.27c2.76-1.29,5.52-2.58,8.28-3.87
				c0.42-0.2,0.84-0.39,1.34-0.62c-1.76-0.97-3.44-1.89-5.16-2.84c0.32-0.56,0.63-1.12,0.95-1.69
				C144.14,20.43,146.53,21.78,148.96,23.15z"/>
			<path fill="#11337F" d="M171.34,65.52c0.49-0.22,0.98-0.45,1.47-0.65c0.13-0.05,0.3-0.04,0.45-0.01c2.87,0.6,5.74,1.21,8.61,1.81
				c0.54,0.11,1.08,0.22,1.77,0.37c-0.82-1.84-1.59-3.56-2.39-5.36c0.57-0.25,1.17-0.52,1.77-0.78c1.11,2.56,2.2,5.08,3.32,7.65
				c-0.49,0.22-0.98,0.44-1.47,0.64c-0.11,0.05-0.27,0.03-0.39,0c-2.54-0.53-5.08-1.07-7.62-1.6c-0.75-0.16-1.49-0.32-2.24-0.47
				c-0.15-0.03-0.3-0.02-0.55-0.04c0.89,2.01,1.75,3.95,2.65,5.97c-0.54,0.29-1.14,0.55-1.76,0.78
				C173.74,71.05,172.55,68.3,171.34,65.52z"/>
			<path fill="#11337F" d="M15.97,98.52c0.15-0.68,0.28-1.3,0.42-1.92c2.49,0.39,3.89,1.95,3.97,4.37c0.01,0.47,0,0.94-0.08,1.4
				c-0.27,1.52-1.13,2.64-2.53,3.25c-2.58,1.12-5.2,1.1-7.74-0.13c-2.74-1.33-3.02-4.08-2.33-6.05c0.55-1.59,1.78-2.46,3.47-2.86
				c0.16,0.64,0.31,1.24,0.47,1.91c-0.19,0.07-0.36,0.14-0.54,0.21c-0.97,0.37-1.64,0.99-1.79,2.07c-0.15,1.12,0.18,2.07,1.12,2.69
				c0.51,0.34,1.11,0.58,1.71,0.73c1.39,0.35,2.8,0.34,4.17-0.15c0.47-0.17,0.94-0.44,1.33-0.76c0.86-0.72,1.04-1.71,0.81-2.75
				c-0.22-1.01-0.9-1.62-1.9-1.87C16.37,98.64,16.22,98.59,15.97,98.52z"/>
			<path fill="#11337F" d="M34.08,36.04c0.56-0.49,1.11-0.98,1.63-1.44c3.07,1.9,6.09,3.77,9.11,5.64c0.03-0.03,0.07-0.05,0.1-0.08
				c-1.5-3.21-3-6.42-4.54-9.7c0.49-0.44,1.04-0.93,1.62-1.44c1.75,4.05,3.47,8.05,5.22,12.1c-0.55,0.49-1.13,1.01-1.71,1.52
				C41.69,40.43,37.91,38.25,34.08,36.04z"/>
			<path fill="#11337F" d="M128.88,19.01c-0.19,0.64-0.36,1.26-0.54,1.88c-1.55-0.47-3.07-0.92-4.65-1.4
				c-0.56,1.74-1.04,3.42-1.45,5.19c-0.65-0.19-1.26-0.37-1.89-0.55c1.16-4,2.3-7.97,3.47-12c2.34,0.67,4.74,1.36,7.21,2.07
				c-0.16,0.59-0.34,1.23-0.53,1.89c-1.81-0.54-3.58-1.06-5.39-1.6c-0.32,1.09-0.61,2.09-0.92,3.17
				C125.75,18.12,127.27,18.55,128.88,19.01z"/>
			<path fill="#11337F" d="M95.66,21.8c-0.67,0.03-1.31,0.06-1.99,0.1c-0.04-0.94-0.07-1.8-0.12-2.67c-0.05-0.83,0.04-1.7-0.21-2.46
				c-0.24-0.74-0.81-1.38-1.24-2.06c-1.03-1.6-2.08-3.19-3.11-4.78c-0.03-0.05-0.06-0.12-0.12-0.27c0.8-0.09,1.56-0.15,2.29-0.15
				c1.02,1.72,2.02,3.41,3.1,5.24c0.86-1.9,1.66-3.66,2.51-5.53c0.65-0.04,1.43-0.09,2.28-0.14c-0.1,0.24-0.17,0.4-0.24,0.55
				c-1.1,2.23-2.2,4.45-3.28,6.69c-0.13,0.26-0.17,0.6-0.16,0.9C95.45,18.71,95.56,20.2,95.66,21.8z"/>
			<path fill="#11337F" d="M24.11,76.96c-0.21,0.66-0.41,1.29-0.61,1.91c-1.46-0.48-2.86-0.93-4.25-1.39
				c-0.41-0.14-0.8-0.17-1.24-0.07c-2.45,0.55-4.9,1.07-7.35,1.6c-0.06,0.01-0.13,0.01-0.27,0.01c0.15-0.79,0.43-1.5,0.65-2.18
				c1.98-0.35,3.91-0.69,5.99-1.05c-1.46-1.48-2.83-2.86-4.29-4.34c0.19-0.61,0.42-1.34,0.68-2.15c0.16,0.15,0.28,0.24,0.38,0.35
				c1.7,1.82,3.38,3.65,5.09,5.46c0.22,0.23,0.53,0.42,0.83,0.52c1.34,0.43,2.7,0.82,4.05,1.22C23.87,76.88,23.97,76.92,24.11,76.96
				z"/>
			<path fill="#11337F" d="M81.97,12.76c-1.27,0.25-2.47,0.49-3.75,0.75c-0.12-0.63-0.25-1.28-0.37-1.92
				C81,11,84.09,10.42,87.27,9.82c0.11,0.61,0.23,1.25,0.36,1.93c-1.27,0.22-2.49,0.44-3.77,0.67c0.66,3.5,1.31,6.9,1.97,10.39
				c-0.6,0.12-1.24,0.25-1.93,0.39C83.26,19.72,82.62,16.28,81.97,12.76z"/>
			<path fill="#11337F" d="M21.57,86.58c-0.11,0.63-0.23,1.27-0.34,1.92c-3.48-0.64-6.92-1.27-10.42-1.92
				c-0.22,1.27-0.43,2.48-0.64,3.74c-0.63-0.11-1.26-0.22-1.92-0.34c0.57-3.11,1.14-6.18,1.72-9.33c0.6,0.11,1.22,0.22,1.91,0.34
				c-0.24,1.23-0.48,2.42-0.73,3.69c1.73,0.39,3.45,0.65,5.16,0.97C18.03,85.96,19.75,86.25,21.57,86.58z"/>
			<path fill="#11337F" d="M79.21,24.26c-0.62,0.17-1.25,0.34-1.88,0.51c-1.11-4.04-2.2-8.01-3.31-12.06
				c0.6-0.17,1.24-0.35,1.88-0.53C77,16.2,78.1,20.18,79.21,24.26z"/>
			<path fill="#11337F" d="M41.82,46.23c-0.43,0.46-0.89,0.95-1.34,1.42c-3.04-2.85-6.06-5.68-9.13-8.56
				c0.44-0.46,0.9-0.96,1.33-1.42C35.74,40.53,38.75,43.35,41.82,46.23z"/>
			<path fill="#11337F" d="M7.98,93.96c0.06-0.65,0.13-1.29,0.19-1.94c4.13,0.41,8.22,0.82,12.39,1.23
				c-0.06,0.62-0.12,1.27-0.18,1.94C16.24,94.78,12.15,94.37,7.98,93.96z"/>
		</g>
		<g>
			<path fill="#11337F" d="M45.42,102.79v5.57l-2,0.13v25.21h-6.67c-5.08-9.31-8.16-19.86-8.65-31.08l11.78-0.89L45.42,102.79z"/>
			<polygon fill="#11337F" points="57.59,107.96 57.59,133.71 43.86,133.71 43.86,108.83 45.81,108.71 			"/>
			<polygon fill="#11337F" points="57.59,133.71 63.01,133.71 63.01,108.83 57.59,107.96 			"/>
			<path fill="#11337F" d="M80.04,97.54c-0.01,0.03-0.01,0.06-0.01,0.08c0,0.28,0.22,0.55,0.6,0.76c0.37,0.21,0.9,0.39,1.53,0.49
				c0.42,0.07,0.87,0.11,1.35,0.11c0.18,0,0.37,0,0.53-0.01c0.17-0.01,0.34-0.01,0.49-0.04v1.91l-5.04-0.1v-3.67
				c0-0.34-0.27-0.6-0.6-0.6c-0.34,0-0.6,0.27-0.6,0.6v3.64l-1.8-0.04v-3.6c0-0.34-0.27-0.6-0.6-0.6c-0.34,0-0.6,0.27-0.6,0.6v3.57
				l-1.8-0.03v-3.55c0-0.34-0.27-0.6-0.6-0.6c-0.34,0-0.6,0.27-0.6,0.6v3.52l-1.98-0.04v-3.47c0-0.34-0.27-0.6-0.6-0.6
				c-0.32,0-0.6,0.27-0.6,0.6v3.45l-41.07-0.86v-0.32c0-1.43,0.04-2.86,0.13-4.26l56.4-1.18v2.41c-0.32-0.04-0.66-0.06-1.03-0.06
				c-1.79,0-3.25,0.53-3.46,1.21C80.04,97.49,80.04,97.52,80.04,97.54z"/>
			<path fill="#11337F" d="M84.55,98.59v0.32c-0.32,0.06-0.68,0.07-1.03,0.07c-1.93,0-3.49-0.6-3.49-1.36c0-0.06,0-0.11,0.03-0.17
				c0.2,0.68,1.67,1.21,3.46,1.21C83.87,98.66,84.22,98.65,84.55,98.59z"/>
			<path fill="#11337F" d="M84.56,92.37v1.1l-56.34,0.6c0-0.17,0.01-0.35,0.04-0.53L84.56,92.37z"/>
			<path fill="#11337F" d="M73.35,97.22v35.81c0,0.33-0.21,0.61-0.47,0.61c-0.26,0-0.47-0.28-0.47-0.61V97.22
				c0-0.34,0.21-0.61,0.47-0.61C73.15,96.61,73.35,96.88,73.35,97.22z"/>
			<path fill="#11337F" d="M76.36,97.22v35.81c0,0.33-0.2,0.61-0.46,0.61c-0.26,0-0.46-0.28-0.46-0.61V97.22
				c0-0.34,0.2-0.61,0.46-0.61C76.15,96.61,76.36,96.88,76.36,97.22z"/>
			<path fill="#11337F" d="M79.38,97.22v35.81c0,0.33-0.21,0.61-0.47,0.61s-0.47-0.28-0.47-0.61V97.22c0-0.34,0.21-0.61,0.47-0.61
				S79.38,96.88,79.38,97.22z"/>
			<path fill="#11337F" d="M70.16,97.22v35.81c0,0.33-0.21,0.61-0.47,0.61c-0.25,0-0.47-0.28-0.47-0.61V97.22
				c0-0.34,0.22-0.61,0.47-0.61C69.95,96.61,70.16,96.88,70.16,97.22z"/>
			<path fill="#11337F" d="M84.55,62.16v71.55l13.43,0V58.13L84.55,62.16z M90.99,61.77c2.74-0.8,5.04,0.88,5.04,3.77
				c0,2.88-2.29,5.74-5.04,6.37c-2.66,0.6-4.74-1.13-4.74-3.84C86.25,65.35,88.33,62.53,90.99,61.77z M86.79,130.93l-0.32-0.03
				V78.27l0.32-0.07V130.93z M88.74,77.57l-3.25,0.63v-3.85l3.25-0.71V77.57z M91.09,131.42l-0.34-0.04V77.42l0.34-0.08V131.42z
				 M92.92,76.75l-3.81,0.75v-3.95l3.81-0.84V76.75z M95.65,131.93l-0.37-0.04V76.44l0.37-0.06V131.93z M96.89,75.98l-3.6,0.7v-4.04
				l3.6-0.8V75.98z"/>
			<path fill="#11337F" d="M92.88,61.93l-0.34,0.93l-0.11-0.02l0.34-0.93c-0.54-0.07-1.12-0.04-1.73,0.13v2.85
				c0.45-0.11,0.89-0.05,1.24,0.2l1.99-2.6C93.88,62.21,93.4,62.02,92.88,61.93z"/>
			<path fill="#11337F" d="M89.7,68.67l-1.87,2.44c0.38,0.3,0.82,0.51,1.31,0.62l0.32-0.86l0.1,0.02l-0.32,0.87
				c0.52,0.11,1.09,0.11,1.69-0.02V68.9C90.48,68.99,90.04,68.92,89.7,68.67z"/>
			<path fill="#11337F" d="M95.42,63.95l-0.82,0.56l-0.04-0.1l0.83-0.56c-0.24-0.52-0.58-0.96-1-1.29l-2,2.61
				c0.32,0.27,0.48,0.66,0.51,1.1l2.86-0.75C95.74,64.94,95.62,64.42,95.42,63.95z"/>
			<path fill="#11337F" d="M89.11,67.4l-2.62,0.68c0,0.59,0.11,1.13,0.31,1.6l0.73-0.5l0.04,0.1l-0.74,0.5
				c0.22,0.5,0.53,0.92,0.92,1.26l1.87-2.44C89.28,68.3,89.11,67.88,89.11,67.4z"/>
			<path fill="#11337F" d="M94.53,67.62l0.05-0.12l0.83,0.15c0.24-0.64,0.37-1.32,0.37-1.99l-2.85,0.74c0,0.49-0.19,1.02-0.53,1.49
				l2,1.57c0.4-0.51,0.72-1.09,0.96-1.69L94.53,67.62z"/>
			<path fill="#11337F" d="M87.74,64.45c-0.36,0.5-0.65,1.05-0.86,1.62l0.73,0.14l-0.04,0.12l-0.73-0.14
				c-0.2,0.57-0.32,1.17-0.33,1.76l2.63-0.69c0.03-0.45,0.18-0.92,0.49-1.34L87.74,64.45z"/>
			<path fill="#11337F" d="M92.3,68.02c-0.35,0.43-0.8,0.72-1.24,0.85v2.85c0.57-0.14,1.1-0.39,1.61-0.7l-0.31-0.73l0.11-0.07
				l0.32,0.74c0.57-0.37,1.08-0.84,1.52-1.37L92.3,68.02z"/>
			<path fill="#11337F" d="M89.33,62.88l0.31,0.72l-0.1,0.07l-0.31-0.73c-0.53,0.38-1,0.85-1.4,1.38l1.87,1.46
				c0.34-0.43,0.78-0.73,1.22-0.86v-2.85C90.36,62.26,89.82,62.54,89.33,62.88z"/>
			<g>
				<polygon fill="#11337F" points="90.17,65.47 91.43,68.44 91.82,68.15 				"/>
			</g>
			<path fill="#11337F" d="M161.81,135.61c-0.56,0.98-1.17,1.96-1.79,2.9H39.64c-0.62-0.94-1.22-1.91-1.79-2.9H161.81z"/>
			<path fill="#11337F" d="M93.28,133.71H63.8c2.86-5.2,8.39-8.71,14.74-8.71C84.89,125,90.41,128.51,93.28,133.71z"/>
			<path fill="#11337F" d="M122.43,133.71H92.95c2.86-5.2,8.39-8.71,14.74-8.71C114.04,125,119.57,128.51,122.43,133.71z"/>
			<path fill="#11337F" d="M152.41,133.71h-29.48c2.86-5.2,8.39-8.71,14.74-8.71C144.02,125,149.55,128.51,152.41,133.71z"/>
			<path fill="#11337F" d="M166.91,125c-0.62,1.65-1.31,3.26-2.07,4.85c-0.28,0.62-0.58,1.22-0.89,1.83
				c-0.35,0.69-0.7,1.35-1.07,2.03h-10.4c0.38-0.69,0.8-1.35,1.28-1.97c1.97-2.64,4.71-4.7,7.89-5.81
				C163.31,125.36,165.09,125.03,166.91,125z"/>
			<path fill="#11337F" d="M122.93,133.73c-0.01,0.02-0.03,0.05-0.04,0.08c-0.01-0.03-0.03-0.05-0.04-0.08H122.93z"/>
			<path fill="#11337F" d="M152.5,133.73c-0.02,0.02-0.03,0.05-0.04,0.08c-0.01-0.03-0.03-0.05-0.04-0.08H152.5z"/>
			<polygon fill="#11337F" points="104.75,104.1 102.83,104.25 102.83,102.73 104.75,102.57 			"/>
			<polygon fill="#11337F" points="107.01,103.92 105.06,104.07 105.06,102.54 107.01,102.38 			"/>
			<polygon fill="#11337F" points="109.29,103.74 107.32,103.9 107.32,102.36 109.29,102.19 			"/>
			<polygon fill="#11337F" points="111.6,103.56 109.6,103.71 109.6,102.16 111.6,102 			"/>
			<polygon fill="#11337F" points="113.94,103.37 111.92,103.53 111.92,101.97 113.94,101.8 			"/>
			<polygon fill="#11337F" points="104.75,106.25 102.83,106.4 102.83,104.87 104.75,104.72 			"/>
			<polygon fill="#11337F" points="107.01,106.09 105.06,106.23 105.06,104.7 107.01,104.55 			"/>
			<polygon fill="#11337F" points="109.29,105.92 107.32,106.07 107.32,104.53 109.29,104.37 			"/>
			<polygon fill="#11337F" points="111.6,105.75 109.6,105.9 109.6,104.35 111.6,104.19 			"/>
			<polygon fill="#11337F" points="113.94,105.58 111.92,105.73 111.92,104.17 113.94,104.01 			"/>
			<polygon fill="#11337F" points="104.75,111.88 102.83,112 102.83,110.48 104.75,110.36 			"/>
			<polygon fill="#11337F" points="107.01,111.75 105.06,111.87 105.06,110.34 107.01,110.21 			"/>
			<polygon fill="#11337F" points="109.29,111.62 107.32,111.74 107.32,110.2 109.29,110.07 			"/>
			<polygon fill="#11337F" points="111.6,111.48 109.6,111.6 109.6,110.05 111.6,109.93 			"/>
			<polygon fill="#11337F" points="113.94,111.35 111.92,111.47 111.92,109.91 113.94,109.78 			"/>
			<polygon fill="#11337F" points="104.75,113.95 102.83,114.05 102.83,112.53 104.75,112.42 			"/>
			<polygon fill="#11337F" points="107.01,113.83 105.06,113.93 105.06,112.4 107.01,112.29 			"/>
			<polygon fill="#11337F" points="109.29,113.71 107.32,113.81 107.32,112.27 109.29,112.16 			"/>
			<polygon fill="#11337F" points="111.6,113.58 109.6,113.69 109.6,112.14 111.6,112.03 			"/>
			<polygon fill="#11337F" points="113.94,113.46 111.92,113.57 111.92,112.01 113.94,111.89 			"/>
			<polygon fill="#11337F" points="104.75,116.01 102.83,116.1 102.83,114.58 104.75,114.48 			"/>
			<polygon fill="#11337F" points="107.01,115.9 105.06,116 105.06,114.46 107.01,114.36 			"/>
			<polygon fill="#11337F" points="109.29,115.79 107.32,115.89 107.32,114.35 109.29,114.25 			"/>
			<polygon fill="#11337F" points="111.6,115.69 109.6,115.78 109.6,114.23 111.6,114.13 			"/>
			<polygon fill="#11337F" points="113.94,115.57 111.92,115.67 111.92,114.11 113.94,114.01 			"/>
			<polygon fill="#11337F" points="104.75,118.07 102.83,118.15 102.83,116.63 104.75,116.54 			"/>
			<polygon fill="#11337F" points="107.01,117.98 105.06,118.06 105.06,116.53 107.01,116.44 			"/>
			<polygon fill="#11337F" points="109.29,117.88 107.32,117.96 107.32,116.42 109.29,116.33 			"/>
			<polygon fill="#11337F" points="111.6,117.79 109.6,117.87 109.6,116.32 111.6,116.23 			"/>
			<polygon fill="#11337F" points="113.94,117.69 111.92,117.77 111.92,116.21 113.94,116.12 			"/>
			<polygon fill="#11337F" points="104.75,120.13 102.83,120.2 102.83,118.68 104.75,118.6 			"/>
			<polygon fill="#11337F" points="107.01,120.05 105.06,120.12 105.06,118.59 107.01,118.51 			"/>
			<polygon fill="#11337F" points="109.29,119.97 107.32,120.04 107.32,118.5 109.29,118.42 			"/>
			<polygon fill="#11337F" points="111.6,119.89 109.6,119.96 109.6,118.41 111.6,118.33 			"/>
			<polygon fill="#11337F" points="113.94,119.8 111.92,119.87 111.92,118.31 113.94,118.23 			"/>
			<polygon fill="#11337F" points="104.75,122.2 102.83,122.26 102.83,120.73 104.75,120.67 			"/>
			<polygon fill="#11337F" points="107.01,122.13 105.06,122.19 105.06,120.66 107.01,120.59 			"/>
			<polygon fill="#11337F" points="109.29,122.06 107.32,122.12 107.32,120.58 109.29,120.51 			"/>
			<polygon fill="#11337F" points="111.6,121.99 109.6,122.05 109.6,120.5 111.6,120.43 			"/>
			<polygon fill="#11337F" points="113.94,121.91 111.92,121.98 111.92,120.42 113.94,120.35 			"/>
			<polygon fill="#11337F" points="119.35,102.94 117.28,103.11 117.28,101.52 119.35,101.35 			"/>
			<polygon fill="#11337F" points="121.79,102.75 119.68,102.91 119.68,101.32 121.79,101.15 			"/>
			<polygon fill="#11337F" points="124.25,102.55 122.12,102.72 122.12,101.12 124.25,100.94 			"/>
			<polygon fill="#11337F" points="126.75,102.35 124.59,102.52 124.59,100.91 126.75,100.73 			"/>
			<polygon fill="#11337F" points="129.28,102.15 127.1,102.33 127.1,100.7 129.28,100.52 			"/>
			<polygon fill="#11337F" points="119.35,105.18 117.28,105.33 117.28,103.75 119.35,103.59 			"/>
			<polygon fill="#11337F" points="121.79,105 119.68,105.16 119.68,103.56 121.79,103.4 			"/>
			<polygon fill="#11337F" points="124.25,104.82 122.12,104.98 122.12,103.37 124.25,103.21 			"/>
			<polygon fill="#11337F" points="126.75,104.64 124.59,104.79 124.59,103.18 126.75,103.02 			"/>
			<polygon fill="#11337F" points="129.28,104.45 127.1,104.61 127.1,102.99 129.28,102.82 			"/>
			<polygon fill="#11337F" points="119.35,111.03 117.28,111.15 117.28,109.57 119.35,109.44 			"/>
			<polygon fill="#11337F" points="121.79,110.89 119.68,111.01 119.68,109.42 121.79,109.29 			"/>
			<polygon fill="#11337F" points="124.25,110.74 122.12,110.87 122.12,109.27 124.25,109.13 			"/>
			<polygon fill="#11337F" points="126.75,110.6 124.59,110.72 124.59,109.11 126.75,108.98 			"/>
			<polygon fill="#11337F" points="129.28,110.45 127.1,110.58 127.1,108.96 129.28,108.82 			"/>
			<polygon fill="#11337F" points="119.35,113.17 117.28,113.28 117.28,111.7 119.35,111.58 			"/>
			<polygon fill="#11337F" points="121.79,113.05 119.68,113.16 119.68,111.57 121.79,111.45 			"/>
			<polygon fill="#11337F" points="124.25,112.91 122.12,113.03 122.12,111.43 124.25,111.31 			"/>
			<polygon fill="#11337F" points="126.75,112.78 124.59,112.9 124.59,111.29 126.75,111.16 			"/>
			<polygon fill="#11337F" points="129.28,112.65 127.1,112.76 127.1,111.14 129.28,111.02 			"/>
			<polygon fill="#11337F" points="119.35,115.32 117.28,115.42 117.28,113.83 119.35,113.73 			"/>
			<polygon fill="#11337F" points="121.79,115.2 119.68,115.3 119.68,113.71 121.79,113.6 			"/>
			<polygon fill="#11337F" points="124.25,115.08 122.12,115.19 122.12,113.59 124.25,113.48 			"/>
			<polygon fill="#11337F" points="126.75,114.97 124.59,115.07 124.59,113.46 126.75,113.35 			"/>
			<polygon fill="#11337F" points="129.28,114.85 127.1,114.95 127.1,113.33 129.28,113.22 			"/>
			<polygon fill="#11337F" points="119.35,117.46 117.28,117.55 117.28,115.97 119.35,115.87 			"/>
			<polygon fill="#11337F" points="121.79,117.36 119.68,117.45 119.68,115.86 121.79,115.76 			"/>
			<polygon fill="#11337F" points="124.25,117.25 122.12,117.34 122.12,115.74 124.25,115.65 			"/>
			<polygon fill="#11337F" points="126.75,117.15 124.59,117.24 124.59,115.63 126.75,115.53 			"/>
			<polygon fill="#11337F" points="129.28,117.04 127.1,117.14 127.1,115.51 129.28,115.41 			"/>
			<polygon fill="#11337F" points="119.35,119.6 117.28,119.68 117.28,118.1 119.35,118.01 			"/>
			<polygon fill="#11337F" points="121.79,119.51 119.68,119.59 119.68,118 121.79,117.92 			"/>
			<polygon fill="#11337F" points="124.25,119.42 122.12,119.5 122.12,117.9 124.25,117.82 			"/>
			<polygon fill="#11337F" points="126.75,119.33 124.59,119.41 124.59,117.8 126.75,117.71 			"/>
			<polygon fill="#11337F" points="129.28,119.24 127.1,119.32 127.1,117.7 129.28,117.61 			"/>
			<polygon fill="#11337F" points="119.35,121.75 117.28,121.81 117.28,120.23 119.35,120.16 			"/>
			<polygon fill="#11337F" points="121.79,121.67 119.68,121.74 119.68,120.15 121.79,120.07 			"/>
			<polygon fill="#11337F" points="124.25,121.59 122.12,121.66 122.12,120.06 124.25,119.99 			"/>
			<polygon fill="#11337F" points="126.75,121.52 124.59,121.58 124.59,119.97 126.75,119.9 			"/>
			<polygon fill="#11337F" points="129.28,121.44 127.1,121.51 127.1,119.89 129.28,119.81 			"/>
			<polygon fill="#11337F" points="135.14,101.69 132.89,101.87 132.89,100.22 135.14,100.03 			"/>
			<polygon fill="#11337F" points="137.78,101.48 135.5,101.66 135.5,100 137.78,99.81 			"/>
			<polygon fill="#11337F" points="140.45,101.27 138.14,101.45 138.14,99.78 140.45,99.59 			"/>
			<polygon fill="#11337F" points="143.16,101.05 140.82,101.24 140.82,99.56 143.16,99.36 			"/>
			<polygon fill="#11337F" points="145.91,100.83 143.54,101.02 143.54,99.33 145.91,99.13 			"/>
			<polygon fill="#11337F" points="135.14,104.02 132.89,104.18 132.89,102.54 135.14,102.36 			"/>
			<polygon fill="#11337F" points="137.78,103.82 135.5,103.99 135.5,102.34 137.78,102.16 			"/>
			<polygon fill="#11337F" points="140.45,103.63 138.14,103.8 138.14,102.13 140.45,101.95 			"/>
			<polygon fill="#11337F" points="143.16,103.43 140.82,103.6 140.82,101.92 143.16,101.74 			"/>
			<polygon fill="#11337F" points="145.91,103.23 143.54,103.4 143.54,101.71 145.91,101.53 			"/>
			<polygon fill="#11337F" points="135.14,110.11 132.89,110.24 132.89,108.59 135.14,108.45 			"/>
			<polygon fill="#11337F" points="137.78,109.95 135.5,110.09 135.5,108.43 137.78,108.29 			"/>
			<polygon fill="#11337F" points="140.45,109.8 138.14,109.93 138.14,108.27 140.45,108.12 			"/>
			<polygon fill="#11337F" points="143.16,109.64 140.82,109.77 140.82,108.1 143.16,107.95 			"/>
			<polygon fill="#11337F" points="145.91,109.48 143.54,109.62 143.54,107.93 145.91,107.78 			"/>
			<polygon fill="#11337F" points="135.14,112.34 132.89,112.46 132.89,110.81 135.14,110.68 			"/>
			<polygon fill="#11337F" points="137.78,112.2 135.5,112.32 135.5,110.66 137.78,110.53 			"/>
			<polygon fill="#11337F" points="140.45,112.06 138.14,112.18 138.14,110.51 140.45,110.38 			"/>
			<polygon fill="#11337F" points="143.16,111.91 140.82,112.04 140.82,110.36 143.16,110.23 			"/>
			<polygon fill="#11337F" points="145.91,111.77 143.54,111.89 143.54,110.2 145.91,110.07 			"/>
			<polygon fill="#11337F" points="135.14,114.57 132.89,114.67 132.89,113.03 135.14,112.91 			"/>
			<polygon fill="#11337F" points="137.78,114.44 135.5,114.55 135.5,112.9 137.78,112.78 			"/>
			<polygon fill="#11337F" points="140.45,114.32 138.14,114.43 138.14,112.76 140.45,112.64 			"/>
			<polygon fill="#11337F" points="143.16,114.19 140.82,114.3 140.82,112.62 143.16,112.5 			"/>
			<polygon fill="#11337F" points="145.91,114.06 143.54,114.17 143.54,112.48 145.91,112.36 			"/>
			<polygon fill="#11337F" points="135.14,116.8 132.89,116.89 132.89,115.25 135.14,115.14 			"/>
			<polygon fill="#11337F" points="137.78,116.69 135.5,116.78 135.5,115.13 137.78,115.02 			"/>
			<polygon fill="#11337F" points="140.45,116.58 138.14,116.67 138.14,115.01 140.45,114.9 			"/>
			<polygon fill="#11337F" points="143.16,116.46 140.82,116.56 140.82,114.88 143.16,114.78 			"/>
			<polygon fill="#11337F" points="145.91,116.35 143.54,116.45 143.54,114.76 145.91,114.65 			"/>
			<polygon fill="#11337F" points="135.14,119.03 132.89,119.11 132.89,117.47 135.14,117.37 			"/>
			<polygon fill="#11337F" points="137.78,118.93 135.5,119.02 135.5,117.36 137.78,117.27 			"/>
			<polygon fill="#11337F" points="140.45,118.84 138.14,118.92 138.14,117.25 140.45,117.16 			"/>
			<polygon fill="#11337F" points="143.16,118.74 140.82,118.82 140.82,117.14 143.16,117.05 			"/>
			<polygon fill="#11337F" points="145.91,118.64 143.54,118.72 143.54,117.03 145.91,116.94 			"/>
			<polygon fill="#11337F" points="135.14,121.26 132.89,121.33 132.89,119.68 135.14,119.6 			"/>
			<polygon fill="#11337F" points="137.78,121.18 135.5,121.25 135.5,119.59 137.78,119.51 			"/>
			<polygon fill="#11337F" points="140.45,121.1 138.14,121.17 138.14,119.5 140.45,119.42 			"/>
			<polygon fill="#11337F" points="143.16,121.01 140.82,121.08 140.82,119.41 143.16,119.32 			"/>
			<polygon fill="#11337F" points="145.91,120.93 143.54,121 143.54,119.31 145.91,119.23 			"/>
			<polygon fill="#11337F" points="152.27,100.33 149.83,100.52 149.83,98.81 152.27,98.6 			"/>
			<polygon fill="#11337F" points="155.14,100.1 152.66,100.3 152.66,98.57 155.14,98.36 			"/>
			<polygon fill="#11337F" points="158.05,99.87 155.54,100.07 155.54,98.33 158.05,98.12 			"/>
			<polygon fill="#11337F" points="160.99,99.63 158.45,99.84 158.45,98.09 160.99,97.88 			"/>
			<polygon fill="#11337F" points="163.98,99.4 161.4,99.6 161.4,97.84 163.98,97.63 			"/>
			<polygon fill="#11337F" points="152.27,102.76 149.83,102.94 149.83,101.22 152.27,101.03 			"/>
			<polygon fill="#11337F" points="155.14,102.55 152.66,102.73 152.66,101 155.14,100.81 			"/>
			<polygon fill="#11337F" points="158.05,102.33 155.54,102.52 155.54,100.78 158.05,100.58 			"/>
			<polygon fill="#11337F" points="160.99,102.11 158.45,102.3 158.45,100.55 160.99,100.36 			"/>
			<polygon fill="#11337F" points="163.98,101.89 161.4,102.08 161.4,100.32 163.98,100.12 			"/>
			<polygon fill="#11337F" points="152.27,109.1 149.83,109.25 149.83,107.53 152.27,107.38 			"/>
			<polygon fill="#11337F" points="155.14,108.94 152.66,109.08 152.66,107.36 155.14,107.2 			"/>
			<polygon fill="#11337F" points="158.05,108.77 155.54,108.91 155.54,107.18 158.05,107.02 			"/>
			<polygon fill="#11337F" points="160.99,108.59 158.45,108.74 158.45,106.99 160.99,106.83 			"/>
			<polygon fill="#11337F" points="163.98,108.42 161.4,108.57 161.4,106.81 163.98,106.65 			"/>
			<polygon fill="#11337F" points="152.27,111.43 149.83,111.56 149.83,109.85 152.27,109.71 			"/>
			<polygon fill="#11337F" points="155.14,111.28 152.66,111.41 152.66,109.68 155.14,109.54 			"/>
			<polygon fill="#11337F" points="158.05,111.12 155.54,111.26 155.54,109.52 158.05,109.38 			"/>
			<polygon fill="#11337F" points="160.99,110.97 158.45,111.1 158.45,109.35 160.99,109.21 			"/>
			<polygon fill="#11337F" points="163.98,110.81 161.4,110.95 161.4,109.18 163.98,109.04 			"/>
			<polygon fill="#11337F" points="152.27,113.76 149.83,113.87 149.83,112.16 152.27,112.03 			"/>
			<polygon fill="#11337F" points="155.14,113.62 152.66,113.74 152.66,112.01 155.14,111.88 			"/>
			<polygon fill="#11337F" points="158.05,113.48 155.54,113.6 155.54,111.86 158.05,111.73 			"/>
			<polygon fill="#11337F" points="160.99,113.34 158.45,113.46 158.45,111.71 160.99,111.58 			"/>
			<polygon fill="#11337F" points="163.98,113.2 161.4,113.32 161.4,111.56 163.98,111.43 			"/>
			<polygon fill="#11337F" points="152.27,116.08 149.83,116.18 149.83,114.47 152.27,114.36 			"/>
			<polygon fill="#11337F" points="155.14,115.96 152.66,116.06 152.66,114.34 155.14,114.22 			"/>
			<polygon fill="#11337F" points="158.05,115.84 155.54,115.94 155.54,114.21 158.05,114.09 			"/>
			<polygon fill="#11337F" points="160.99,115.71 158.45,115.82 158.45,114.07 160.99,113.95 			"/>
			<polygon fill="#11337F" points="163.98,115.59 161.4,115.7 161.4,113.94 163.98,113.82 			"/>
			<polygon fill="#11337F" points="152.27,118.41 149.83,118.49 149.83,116.78 152.27,116.68 			"/>
			<polygon fill="#11337F" points="155.14,118.3 152.66,118.39 152.66,116.67 155.14,116.56 			"/>
			<polygon fill="#11337F" points="158.05,118.19 155.54,118.29 155.54,116.55 158.05,116.45 			"/>
			<polygon fill="#11337F" points="160.99,118.09 158.45,118.18 158.45,116.43 160.99,116.33 			"/>
			<polygon fill="#11337F" points="163.98,117.98 161.4,118.07 161.4,116.31 163.98,116.21 			"/>
			<polygon fill="#11337F" points="152.27,120.73 149.83,120.81 149.83,119.09 152.27,119.01 			"/>
			<polygon fill="#11337F" points="155.14,120.64 152.66,120.72 152.66,118.99 155.14,118.91 			"/>
			<polygon fill="#11337F" points="158.05,120.55 155.54,120.63 155.54,118.89 158.05,118.8 			"/>
			<polygon fill="#11337F" points="160.99,120.46 158.45,120.54 158.45,118.79 160.99,118.7 			"/>
			<polygon fill="#11337F" points="163.98,120.37 161.4,120.45 161.4,118.69 163.98,118.6 			"/>
			<polygon fill="#11337F" points="170.92,98.85 168.26,99.06 168.26,97.27 170.92,97.05 			"/>
			<path fill="#11337F" d="M171.63,98.78l-0.28,0.03v-1.8L171.6,97C171.63,97.59,171.64,98.19,171.63,98.78z"/>
			<polygon fill="#11337F" points="170.92,101.38 168.26,101.58 168.26,99.79 170.92,99.58 			"/>
			<path fill="#11337F" d="M171.64,99.53c0,0.6-0.01,1.21-0.03,1.81l-0.27,0.01v-1.8L171.64,99.53z"/>
			<polygon fill="#11337F" points="170.92,108.01 168.26,108.17 168.26,106.38 170.92,106.21 			"/>
			<path fill="#11337F" d="M170.92,108.64v0.84c-0.04,0.32-0.08,0.65-0.14,0.97l-2.53,0.13v-1.79L170.92,108.64z"/>
			<path fill="#11337F" d="M170.68,111.08c-0.1,0.62-0.21,1.22-0.34,1.81l-2.1,0.1v-1.79L170.68,111.08z"/>
			<path fill="#11337F" d="M170.23,113.52c-0.11,0.62-0.24,1.22-0.39,1.81l-1.59,0.07v-1.79L170.23,113.52z"/>
			<path fill="#11337F" d="M169.7,115.97c-0.14,0.62-0.3,1.22-0.46,1.81l-0.99,0.04v-1.8L169.7,115.97z"/>
			<path fill="#11337F" d="M169.07,118.42c-0.15,0.6-0.32,1.21-0.51,1.8l-0.31,0.01v-1.79L169.07,118.42z"/>
			<path fill="#11337F" d="M167.76,96.71l3.81-0.32c-0.03-0.87-0.07-1.76-0.14-2.63l-63.49,5.77h-0.01l-6.96,0.63v33.55h61.93
				c0.37-0.68,0.72-1.34,1.07-2.03l-10.19,0.06h-2.63l-1.77,0.01v-5.6l12.3-0.22l3.18-0.06v3.98c0.76-1.59,1.45-3.21,2.07-4.85
				c0.39-1.01,0.76-2.03,1.1-3.05h-0.25v-16.16l3.62-0.23c0.1-1.08,0.17-2.17,0.2-3.26l-3.81,0.27V96.71z M132.48,99.71l14.22-1.21
				v5.57l-14.22,1.01V99.71z M132.48,108.05l14.22-0.91v15.39l-14.22,0.38V108.05z M116.89,101.03l13.13-1.11v5.35l-13.13,0.93
				V101.03z M116.89,109.04l13.13-0.83v14.77l-13.13,0.35V109.04z M114.62,101.23v5.13l-12.15,0.86v-4.97L114.62,101.23z
				 M102.47,123.72v-13.76l12.15-0.77v14.2L102.47,123.72z M114.62,131.93l-12.15,0.06V127l12.15-0.23V131.93z M130.01,131.84
				l-5.89,0.03h-0.01l-2.84,0.01l-4.38,0.03v-5.18l13.13-0.23V131.84z M146.7,131.77l-14.22,0.07v-5.39l11.56-0.21h0.01l2.64-0.04
				V131.77z M149.37,98.28l15.47-1.31v5.81l-15.47,1.1V98.28z M149.37,122.46v-15.49l15.47-1v16.07L149.37,122.46z"/>
			<path fill="#11337F" d="M110.77,68.87L97.99,58.13v75.58l3.8-2.38l-0.03-30.79l9.02-1.47V68.87z M110.33,97.55l-10.62-5.94V91.2
				l10.62,5.94V97.55z M110.33,83.07L99.68,76.8v-0.41l10.65,6.28V83.07z M110.33,70.99L99.68,63v-0.41l10.65,7.98V70.99z"/>
		</g>
		<g>
			<path fill="#11337F" d="M141.99,155.88c-0.12-0.62-0.29-1.23-0.49-1.82l2.21-2.14c-0.49-1.13-1.11-2.2-1.84-3.18l-2.96,0.85
				c-0.41-0.48-0.86-0.92-1.33-1.33l0.85-2.96c-0.98-0.72-2.05-1.34-3.18-1.84l-2.14,2.21c-0.59-0.2-1.2-0.37-1.83-0.49l-0.75-2.99
				c-0.6-0.07-1.21-0.1-1.83-0.1c-0.62,0-1.23,0.04-1.83,0.1l-0.75,2.99c-0.62,0.12-1.23,0.29-1.83,0.49l-2.14-2.21
				c-1.13,0.49-2.2,1.11-3.18,1.84l0.85,2.96c-0.48,0.41-0.92,0.86-1.33,1.33l-2.96-0.85c-0.72,0.98-1.34,2.05-1.83,3.18l2.21,2.14
				c-0.2,0.59-0.37,1.2-0.49,1.83l-2.99,0.75c-0.07,0.6-0.11,1.21-0.11,1.83c0,0.62,0.04,1.23,0.11,1.83l2.99,0.75
				c0.12,0.62,0.29,1.23,0.49,1.83l-2.21,2.14c0.49,1.13,1.11,2.2,1.83,3.18l2.96-0.85c0.32,0.37,0.68,0.71,1.05,1.05
				c0.79-0.23,1.58-0.45,2.36-0.7c-2.83-2.09-4.69-5.43-4.69-9.22c0-6.35,5.15-11.5,11.5-11.5c6.35,0,11.5,5.15,11.5,11.5
				c0,0.09-0.02,0.17-0.03,0.26c1.15-0.79,2.28-1.6,3.39-2.45L141.99,155.88z"/>
			<path fill="#11337F" d="M110.26,168.9c0-0.44-0.03-0.86-0.07-1.29l-2.1-0.52c-0.08-0.44-0.2-0.87-0.34-1.28l1.55-1.5
				c-0.35-0.79-0.78-1.54-1.29-2.23l-2.08,0.59c-0.29-0.33-0.6-0.65-0.94-0.94l0.59-2.08c-0.69-0.51-1.44-0.94-2.23-1.29l-1.5,1.55
				c-0.41-0.14-0.84-0.26-1.28-0.34l-0.53-2.1c-0.42-0.05-0.85-0.07-1.29-0.07c-0.44,0-0.86,0.03-1.29,0.07l-0.52,2.1
				c-0.44,0.08-0.87,0.2-1.28,0.34l-1.5-1.55c-0.79,0.35-1.54,0.78-2.23,1.29l0.59,2.08c-0.33,0.29-0.65,0.6-0.94,0.94l-2.08-0.59
				c-0.51,0.69-0.94,1.44-1.29,2.23l1.55,1.5c-0.14,0.41-0.26,0.84-0.34,1.28l-2.1,0.52c-0.05,0.42-0.07,0.85-0.07,1.29
				c0,0.38,0.03,0.76,0.06,1.14c1.17,0.21,2.35,0.4,3.54,0.55c-0.12-0.55-0.18-1.11-0.18-1.69c0-4.46,3.61-8.07,8.07-8.07
				c4.46,0,8.07,3.61,8.07,8.07c0,0.66-0.1,1.29-0.25,1.9c0.63-0.06,1.25-0.11,1.88-0.18l1.73-0.43
				C110.24,169.76,110.26,169.34,110.26,168.9z"/>
			<path fill="#11337F" d="M83.84,168.19c0.73-0.98,1.34-2.05,1.84-3.18l-2.21-2.14c0.2-0.59,0.37-1.2,0.49-1.83l2.99-0.75
				c0.07-0.6,0.1-1.21,0.1-1.83c0-0.62-0.04-1.23-0.1-1.83l-2.99-0.75c-0.12-0.62-0.29-1.23-0.49-1.82l2.21-2.14
				c-0.49-1.13-1.11-2.2-1.84-3.18l-2.96,0.85c-0.41-0.48-0.86-0.92-1.33-1.33l0.85-2.96c-0.98-0.72-2.05-1.34-3.18-1.84l-2.14,2.21
				c-0.59-0.2-1.2-0.37-1.83-0.49l-0.75-2.99c-0.6-0.07-1.21-0.1-1.83-0.1s-1.23,0.04-1.83,0.1l-0.75,2.99
				c-0.63,0.12-1.23,0.29-1.83,0.49l-2.14-2.21c-1.13,0.49-2.2,1.11-3.18,1.84l0.85,2.96c-0.47,0.41-0.92,0.86-1.33,1.33l-2.96-0.85
				c-0.72,0.98-1.34,2.05-1.84,3.18l2.21,2.14c-0.2,0.59-0.37,1.2-0.49,1.83l-1.34,0.34c1.02,0.79,2.07,1.55,3.14,2.29
				c0-0.01,0-0.03,0-0.04c0-6.35,5.15-11.5,11.5-11.5s11.5,5.15,11.5,11.5c0,3.76-1.83,7.06-4.62,9.16c0.78,0.25,1.57,0.47,2.35,0.7
				c0.34-0.32,0.67-0.63,0.98-0.98L83.84,168.19z"/>
		</g>
		<g>
			<path fill="#11337F" d="M33.89,154.65c0,0-1.57,0.44-1.85,0.32c-0.29-0.12-1.19-1.41-1.19-1.41s-2.21,5.76-0.99,6.3
				c1.22,0.54,2.78-2.48,3.88-1.39c0,0,0.21,0.37-0.07,0.73c-0.28,0.36,0.28,1.03,0.89,0.82c0.61-0.21,2.14-1.36,1.78-2.14
				c-0.37-0.78-0.62-0.51-0.62-0.51l2.66-2.51c0,0,1.06-1.34-0.15-2.35l-5.59,4.8c0,0-0.43,0.37-0.85-0.3
				C31.37,156.35,33.62,155.11,33.89,154.65z"/>
			<path fill="#11337F" d="M42.73,154.98c0,0,0.55,1.56-0.57,2.67c-1.12,1.11-3.15,2.12-3.15,2.12s1.38,0.72-0.08,1.93
				c-1.46,1.21-1.88,0.66-1.99,0.55c-0.1-0.11,0.12-1.26,0.28-1.38c0.16-0.12-3.35,1.96-3.68,3.41c0,0-0.92,0.19-0.3-2.45
				c0,0,2.18-1.99,4.1-3.14C39.27,157.52,42.2,155.47,42.73,154.98z"/>
			<path fill="#11337F" d="M46.03,157.45c0,0,0.24,2.19-0.11,2.83c-0.35,0.64-2.27,1.85-2.42,1.93c-0.15,0.08-4.59,3.99-4.59,3.99
				s-1.3,1.11-1.2,1.27c0.11,0.16,0.13,0.91-0.49,0.97c-0.62,0.06-1.79-0.38-1.06-2.15c0,0,0.04-0.15,0.94-0.87
				C38,164.69,46.03,157.45,46.03,157.45z"/>
		</g>
		<g>
			<path fill="#11337F" d="M27,128.31l1,2.72c0,0-0.49,0.14-0.78,0.06c-0.29-0.08-1.42-0.56-1.54-1.13
				C25.56,129.38,25.3,128.57,27,128.31z"/>
			<path fill="#11337F" d="M29.66,131.64c0,0,0.79,1.41,0.22,1.88c-0.58,0.46-1.41,0.56-1.9-0.37c-0.49-0.93-4.8-2.93-4.8-2.93
				s0.37,0.64,0.67,0.76s1.07,1.36,0.89,1.6c-0.18,0.25-1.11,0.63-1.47,0.2c-0.36-0.43-0.7,0.19-0.72,0.27
				c-0.02,0.07,0.03,0.65-0.27,0.74c-0.31,0.09-0.8,0-0.8,0s-0.38,0.03-0.42,0.16c-0.04,0.13,0.25,0.5,0.03,0.58
				c-0.22,0.08-1.33,0.51-1.31,0.57c0.02,0.06,0.47,0.78,0.32,0.86c-0.15,0.08-2.31,0.45-2.87-0.94c0,0-0.14,0.05-0.15,0.21
				c-0.01,0.16-0.59,2.22-1.11,2.48c-0.52,0.26-1.13-0.83-0.87-1.38c0.26-0.55,1.55-1.19,1.55-1.19s-0.68-0.25-1.53-0.25
				c-0.84-0.01-0.74,0.08-0.94-0.33c-0.2-0.41-0.3-1.3,0.08-1.19c0.38,0.11,2.39,0.8,2.56,0.9s0.48-0.13,0.19-0.41
				c-0.29-0.28-0.78-0.26-0.78-0.26l-0.29-0.53c0,0-2.49-0.65-2.87-1.92c-0.38-1.27,1.51-0.72,1.85-0.41s1.72,1.52,2.43,1.53
				c0.71,0.01,1.26-0.81,2.58-0.25l0.69-0.17c0,0,0.1-0.35,0.28-0.35c0.18,0,0.99,0.28,1.19,0.13c0.2-0.14-0.11-0.96-0.11-0.96
				s-1.61-0.49-1.76-0.76c-0.14-0.27-0.89-1.37-0.42-1.69c0.48-0.31,2.42,1.26,2.67,1.4c0.25,0.13,5.89,2.48,5.89,2.48
				S29.2,132.17,29.66,131.64z"/>
			<path fill="#11337F" d="M22.86,141.99c0.06-0.3,0.17-2.11,1.14-2.12s2.46,0.68,3.16,0.67c0.7-0.01,1.32-0.67,1.28-0.79
				c-0.04-0.12-1.05-1.54-0.99-1.88c0.06-0.34,2.47-0.87,2.47-0.87s0.63-0.76-0.38-1.04s-3.63,0.82-3.91,0.99
				c0,0-1.94-1.13-2.6-0.95c-0.66,0.18-0.63,0.38-0.63,0.38l0.32,0.88l-7.96,2.99c0,0-2.23,1.16-1.49,2.48l5.27-2.04
				c0,0,0.63,2.06,1.57,2.33S22.8,142.29,22.86,141.99z M20.34,141.58c-0.73-0.14-0.79-1.53-0.79-1.53l5.61-1.91
				c0,0,1.89,0.19,1.58,0.83c-0.31,0.64-2.33,0.22-2.55,0.17c-0.22-0.05-1.35-0.2-1.78,0.95C21.96,141.25,21.07,141.72,20.34,141.58
				z"/>
		</g>
	</g>
</g>
</svg>
