<svg xmlns="http://www.w3.org/2000/svg" viewBox="0 0 203.9 203.9" fill="#ffffff" stroke="#ffffff">
<path d="M124.8,119.1c7.8-6.7,12.2-16.5,12.2-26.7c0-19.5-15.9-35.4-35.4-35.4c-19.5,0-35.4,15.9-35.4,35.4c0,10.3,4.5,20,12.3,26.8
	C59,127,44.8,142.7,44.8,148v17.7h113.6V148C158.4,142.7,144.2,127.1,124.8,119.1z M101.6,125.7c-18.4,0-33.4-15-33.4-33.4
	s15-33.4,33.4-33.4c18.4,0,33.4,15,33.4,33.4S120,125.7,101.6,125.7z M80.2,120.6c6.2,4.7,13.6,7.2,21.4,7.2
	c7.8,0,15.2-2.5,21.4-7.2c20.1,7.6,33.4,23.2,33.4,27.4v15.7H46.8V148C46.8,143.7,60.1,128.2,80.2,120.6z"/>
</svg>
